<?xml version="1.0" encoding="UTF-8" standalone="no"?><!DOCTYPE svg PUBLIC "-//W3C//DTD SVG 1.1//EN" "http://www.w3.org/Graphics/SVG/1.1/DTD/svg11.dtd"><svg width="100%" height="100%" viewBox="0 0 53 45" version="1.1" xmlns="http://www.w3.org/2000/svg" xmlns:xlink="http://www.w3.org/1999/xlink" xml:space="preserve" xmlns:serif="http://www.serif.com/" style="fill-rule:evenodd;clip-rule:evenodd;stroke-linejoin:round;stroke-miterlimit:1.41421;"><rect id="Artboard1" x="0" y="0" width="52.5" height="45" style="fill:none;"/><g><path d="M20.783,7.435l0.182,0c-0.043,0.292 -0.07,0.598 -0.077,0.919c-0.015,0.716 -0.047,2.382 1.789,3.368c0.789,1.151 2.114,1.908 3.612,1.908c1.5,0 2.825,-0.759 3.614,-1.912c1.807,-0.976 1.785,-2.634 1.776,-3.347c-0.005,-0.317 -0.035,-0.631 -0.09,-0.936l0.205,0c0.53,0 0.961,-0.431 0.961,-0.96c0,-0.53 -0.431,-0.961 -0.961,-0.961l-0.342,0c-0.74,-2.192 -2.839,-3.709 -5.166,-3.709c-2.363,0 -4.419,1.484 -5.167,3.709l-0.336,0c-0.53,0 -0.96,0.431 -0.96,0.961c0,0.529 0.431,0.96 0.96,0.96Zm0.817,0.933c0.007,-0.329 0.035,-0.641 0.085,-0.933l1.021,0c-0.211,0.124 -0.44,0.199 -0.687,0.224c-0.196,0.019 -0.339,0.193 -0.32,0.389c0.013,0.134 0.099,0.242 0.215,0.292l0,0.915c0,0.338 0.039,0.667 0.112,0.983c-0.379,-0.567 -0.439,-1.222 -0.426,-1.87Zm4.689,4.55c-2.02,0 -3.663,-1.643 -3.663,-3.663l0,-1.004c0.435,-0.149 0.824,-0.424 1.147,-0.816l1.96,0c0.892,0.628 2.314,1.336 4.219,1.384l0,0.436c0,2.02 -1.644,3.663 -3.663,3.663Zm4.678,-4.537c0.006,0.456 0.015,1.172 -0.409,1.827c0.069,-0.307 0.106,-0.625 0.106,-0.953l0,-0.468c0.136,-0.055 0.229,-0.191 0.222,-0.346c-0.009,-0.196 -0.175,-0.348 -0.373,-0.338c-1.383,0.065 -2.514,-0.256 -3.375,-0.668l3.726,0c0.063,0.306 0.098,0.623 0.103,0.946Zm-2.465,-5.306c0.017,0.008 0.033,0.018 0.049,0.027l0,1.631c0,0.014 -0.011,0.024 -0.024,0.024c-0.014,0 -0.025,-0.01 -0.025,-0.024l0,-1.658l0,0Zm-2.189,-0.557l0,1.656c0,0.013 -0.011,0.024 -0.024,0.024c-0.014,0 -0.025,-0.011 -0.025,-0.024l0,-1.657c0.007,0 0.014,0 0.022,0c0.009,0 0.018,0.001 0.027,0.001Zm-2.287,0.566c0.017,-0.009 0.033,-0.018 0.049,-0.027l0,1.676c0,0.014 -0.011,0.025 -0.024,0.025c-0.014,0 -0.025,-0.011 -0.025,-0.025l0,-1.649Zm-0.712,0.471l0,1.178c0,0.406 0.33,0.737 0.737,0.737c0.406,0 0.736,-0.331 0.736,-0.737l0,-1.977c0.247,-0.081 0.503,-0.143 0.765,-0.183l0,1.6c0,0.407 0.331,0.737 0.737,0.737c0.406,0 0.736,-0.33 0.736,-0.737l0,-1.596c0.262,0.042 0.517,0.105 0.765,0.189l0,1.967c0,0.406 0.331,0.737 0.737,0.737c0.406,0 0.736,-0.331 0.736,-0.737l0,-1.155c0.627,0.505 1.127,1.168 1.432,1.936l-8.819,0c0.308,-0.785 0.809,-1.454 1.438,-1.959Zm-2.531,2.671l11.011,0c0.137,0 0.249,0.112 0.249,0.249c0,0.137 -0.112,0.248 -0.249,0.248l-11.011,0c-0.137,0 -0.248,-0.111 -0.248,-0.248c0,-0.137 0.111,-0.249 0.248,-0.249Z" style="fill:#fff;fill-rule:nonzero;"/><path d="M26.409,10.167l-0.439,0c-0.842,0 -1.528,0.685 -1.528,1.528l0,0.454c0,0.196 0.16,0.356 0.356,0.356c0.197,0 0.357,-0.16 0.357,-0.356l0,-0.454c0,-0.45 0.365,-0.816 0.815,-0.816l0.439,0c0.45,0 0.816,0.366 0.816,0.816l0,0.454c0,0.196 0.159,0.356 0.356,0.356c0.197,0 0.356,-0.16 0.356,-0.356l0,-0.454c0,-0.843 -0.685,-1.528 -1.528,-1.528Z" style="fill:#fff;fill-rule:nonzero;"/><path d="M26.598,11.509l-0.816,0c-0.197,0 -0.356,0.159 -0.356,0.356c0,0.196 0.159,0.356 0.356,0.356l0.816,0c0.197,0 0.356,-0.16 0.356,-0.356c0,-0.197 -0.159,-0.356 -0.356,-0.356Z" style="fill:#fff;fill-rule:nonzero;"/><path d="M38.117,21.183l-0.352,-0.36c0.095,-0.642 0.189,-1.282 0.283,-1.918c0.018,-0.122 -0.028,-0.245 -0.122,-0.324c-0.094,-0.08 -0.223,-0.105 -0.34,-0.067c-0.55,0.179 -1.103,0.343 -1.659,0.495c0,0 -3.375,-3.283 -4.429,-4.444c-0.447,-0.492 -1.063,-0.84 -1.779,-0.84l-1.928,0c-0.182,0 -0.335,0.137 -0.354,0.318c-0.053,0.496 -0.557,0.885 -1.146,0.885c-0.59,0 -1.093,-0.389 -1.146,-0.885c-0.02,-0.181 -0.172,-0.318 -0.354,-0.318l-1.929,0c-0.672,0 -1.261,0.306 -1.7,0.75c-0.003,0.002 -0.006,0.004 -0.008,0.007c-1.13,1.13 -4.518,4.522 -4.518,4.522c-0.55,-0.151 -1.097,-0.313 -1.64,-0.49c-0.117,-0.038 -0.246,-0.013 -0.34,0.067c-0.094,0.079 -0.141,0.202 -0.123,0.324c0.094,0.633 0.188,1.27 0.282,1.908l-0.429,0.436c-0.762,0.763 -0.762,2.003 0,2.766c0.269,0.269 0.612,0.452 0.982,0.53c0.253,1.697 0.507,3.402 0.762,5.105c0.021,0.139 0.122,0.253 0.258,0.29c1.552,0.428 3.128,0.753 4.719,0.977l0,9.739c0,1.4 1.139,2.539 2.54,2.539c1.4,0 2.539,-1.139 2.539,-2.539l0,-9.124l0.209,0l0,9.123c0,1.401 1.14,2.54 2.54,2.54c1.4,0 2.539,-1.139 2.539,-2.54l0,-9.738c1.591,-0.224 3.168,-0.549 4.72,-0.977c0.136,-0.037 0.236,-0.151 0.257,-0.29c0.26,-1.734 0.519,-3.47 0.776,-5.196c0.335,-0.087 0.639,-0.261 0.887,-0.509c0.762,-0.762 0.762,-2.003 0.003,-2.762Zm-4.015,-2.997l1.027,1.031c-0.831,0.207 -1.668,0.386 -2.51,0.534l1.483,-1.565Zm-2.076,1.156l0,-3.239l1.573,1.578l-1.573,1.661Zm-7.521,-4.905c0.229,0.704 0.944,1.203 1.786,1.203c0.842,0 1.556,-0.499 1.786,-1.203l1.642,0c0.88,0 1.595,0.716 1.595,1.595l0,3.925c-1.661,0.23 -3.338,0.346 -5.023,0.346c-1.686,0 -3.363,-0.116 -5.024,-0.346l0,-3.925c0,-0.879 0.716,-1.595 1.595,-1.595l1.643,0Zm-3.95,4.964l-1.644,-1.667l1.644,-1.646l0,3.313Zm-2.148,-1.163l1.481,1.5c-0.823,-0.146 -1.642,-0.323 -2.454,-0.526l0.973,-0.974Zm-3.517,5.273c-0.485,-0.485 -0.485,-1.274 0.002,-1.76l0.054,-0.055c0.101,0.687 0.204,1.376 0.306,2.067c-0.133,-0.061 -0.255,-0.145 -0.362,-0.252Zm8.757,18.972c-1.008,0 -1.828,-0.82 -1.828,-1.828l0,-0.077l2.466,0c0.196,0 0.356,-0.16 0.356,-0.356c0,-0.197 -0.16,-0.356 -0.356,-0.356l-2.466,0l0,-8.856c0.2,0.024 0.4,0.046 0.601,0.067l0,4.802c0,0.197 0.159,0.356 0.356,0.356c0.196,0 0.356,-0.159 0.356,-0.356l0,-4.734c0.778,0.067 1.56,0.108 2.342,0.125l0,9.385c0,1.008 -0.82,1.828 -1.827,1.828Zm7.115,-3.895l-0.578,0c-0.196,0 -0.356,0.159 -0.356,0.356c0,0.196 0.16,0.356 0.356,0.356l0.578,0l0,0.566l-2.456,0c-0.197,0 -0.356,0.159 -0.356,0.356c0,0.196 0.159,0.356 0.356,0.356l2.456,0l0,0.077c0,1.008 -0.82,1.828 -1.827,1.828c-1.008,0 -1.828,-0.82 -1.828,-1.828l0,-9.385c0.829,-0.018 1.657,-0.064 2.481,-0.137l0,1.732c0,0.196 0.16,0.356 0.356,0.356c0.197,0 0.357,-0.16 0.357,-0.356l0,-1.803c0.153,-0.016 0.307,-0.033 0.461,-0.052l0,7.578l0,0Zm-4.471,-8.02c-3.205,0 -6.397,-0.422 -9.491,-1.254c-0.413,-2.757 -0.824,-5.52 -1.227,-8.245c1.514,0.454 3.068,0.816 4.625,1.074c0.019,0.003 0.039,0.005 0.058,0.005c0.171,0 0.322,-0.124 0.351,-0.298c0.032,-0.194 -0.099,-0.377 -0.293,-0.409c-1.637,-0.272 -3.27,-0.66 -4.857,-1.152c-0.045,-0.309 -0.091,-0.617 -0.136,-0.925c3.557,1.096 7.244,1.651 10.97,1.651c3.064,0 6.103,-0.376 9.064,-1.12l-0.794,5.834c-0.026,0.195 0.11,0.375 0.305,0.401c0.016,0.002 0.032,0.004 0.048,0.004c0.176,0 0.328,-0.13 0.353,-0.309l0.833,-6.125c0.389,-0.106 0.776,-0.217 1.161,-0.336c-0.401,2.718 -0.812,5.488 -1.227,8.264c-1.736,0.471 -3.661,0.845 -5.439,1.056c-0.195,0.023 -0.334,0.201 -0.311,0.396c0.021,0.181 0.175,0.314 0.353,0.314c0.014,0 0.028,-0.001 0.042,-0.003c1.709,-0.202 3.552,-0.553 5.24,-0.995c-0.046,0.306 -0.092,0.612 -0.137,0.918c-3.094,0.832 -6.286,1.254 -9.491,1.254Zm11.319,-7.126c-0.079,0.079 -0.168,0.145 -0.263,0.2c0.096,-0.646 0.192,-1.29 0.287,-1.932c0.459,0.487 0.452,1.256 -0.024,1.732Z" style="fill:#fff;fill-rule:nonzero;"/><path d="M27.443,19.229l1.171,0.815c0.061,0.042 0.132,0.064 0.203,0.064c0.071,0 0.142,-0.021 0.203,-0.064l1.174,-0.815c0.096,-0.066 0.153,-0.175 0.153,-0.292l0,-1.527c0,-0.197 -0.16,-0.357 -0.356,-0.357l-0.172,0l0,-1.42c0,-0.196 -0.159,-0.356 -0.356,-0.356c-0.196,0 -0.356,0.16 -0.356,0.356l0,1.42l-1.461,0c-0.196,0 -0.356,0.16 -0.356,0.357l0,1.527c0,0.117 0.057,0.226 0.153,0.292Zm0.559,-1.463l1.633,0l0,0.985l-0.817,0.567l-0.816,-0.567l0,-0.985Z" style="fill:#fff;fill-rule:nonzero;"/><path d="M29.785,28.771c-0.413,0.04 -0.832,0.073 -1.246,0.098c-0.196,0.012 -0.345,0.181 -0.333,0.378c0.011,0.188 0.168,0.334 0.355,0.334c0.007,0 0.015,-0.001 0.022,-0.001c0.422,-0.026 0.849,-0.06 1.27,-0.1c0.196,-0.019 0.339,-0.193 0.321,-0.389c-0.019,-0.195 -0.193,-0.338 -0.389,-0.32Z" style="fill:#fff;fill-rule:nonzero;"/><path d="M23.857,21.851c-0.857,-0.057 -1.723,-0.145 -2.574,-0.263c-0.195,-0.027 -0.374,0.109 -0.401,0.304c-0.027,0.195 0.109,0.374 0.304,0.401c0.867,0.12 1.75,0.211 2.624,0.269c0.008,0 0.016,0.001 0.024,0.001c0.186,0 0.343,-0.145 0.355,-0.333c0.013,-0.196 -0.135,-0.366 -0.332,-0.379Z" style="fill:#fff;fill-rule:nonzero;"/><path d="M19.761,26.562l-2.281,0c-0.196,0 -0.356,0.159 -0.356,0.356c0,0.197 0.16,0.356 0.356,0.356l2.281,0c0.197,0 0.356,-0.159 0.356,-0.356c0,-0.197 -0.159,-0.356 -0.356,-0.356Z" style="fill:#fff;fill-rule:nonzero;"/></g></svg>