<?xml version="1.0" encoding="UTF-8" standalone="no"?><!DOCTYPE svg PUBLIC "-//W3C//DTD SVG 1.1//EN" "http://www.w3.org/Graphics/SVG/1.1/DTD/svg11.dtd"><svg width="100%" height="100%" viewBox="0 0 53 45" version="1.1" xmlns="http://www.w3.org/2000/svg" xmlns:xlink="http://www.w3.org/1999/xlink" xml:space="preserve" xmlns:serif="http://www.serif.com/" style="fill-rule:evenodd;clip-rule:evenodd;stroke-linejoin:round;stroke-miterlimit:1.41421;"><rect id="Artboard1" x="0" y="0" width="52.5" height="45" style="fill:none;"/><g><path d="M46.383,41.939l-9.219,0l-4.319,-12.959l9.7,-5.173c0,0 0,0 0,-0.001c0.008,-0.004 0.015,-0.009 0.023,-0.013c0.248,-0.143 0.354,-0.385 0.344,-0.621l0,-1.366l0.694,0c0.384,0 0.695,-0.311 0.695,-0.694c0,-0.384 -0.311,-0.695 -0.695,-0.695l-0.694,0l0,-0.694l0.694,0c0.384,0 0.695,-0.311 0.695,-0.694c0,-0.384 -0.311,-0.694 -0.695,-0.694l-0.694,0l0,-0.694l0.694,0c0.384,0 0.695,-0.311 0.695,-0.695c0,-0.383 -0.311,-0.694 -0.695,-0.694l-2.777,0c-0.383,0 -0.694,0.311 -0.694,0.694c0,0.384 0.311,0.695 0.694,0.695l0.694,0l0,0.694l-0.694,0c-0.383,0 -0.694,0.311 -0.694,0.694c0,0.383 0.311,0.694 0.694,0.694l0.694,0l0,0.694l-0.694,0c-0.383,0 -0.694,0.311 -0.694,0.695c0,0.383 0.311,0.694 0.694,0.694l0.694,0l0,0.694l-9.025,0l0,-5.832l10.046,-5.358c0.001,0 0.001,0 0.001,0c0.008,-0.004 0.015,-0.009 0.023,-0.014c0.248,-0.143 0.354,-0.385 0.344,-0.621l0,-1.366l0.694,0c0.384,0 0.694,-0.311 0.694,-0.694c0,-0.383 -0.31,-0.694 -0.694,-0.694l-0.694,0l0,-0.694l0.694,0c0.384,0 0.694,-0.311 0.694,-0.695c0,-0.383 -0.31,-0.694 -0.694,-0.694l-0.694,0l0,-0.694l0.694,0c0.384,0 0.694,-0.311 0.694,-0.694c0,-0.384 -0.31,-0.694 -0.694,-0.694l-2.777,0c-0.383,0 -0.694,0.31 -0.694,0.694c0,0.383 0.311,0.694 0.694,0.694l0.694,0l0,0.694l-0.694,0c-0.383,0 -0.694,0.311 -0.694,0.694c0,0.384 0.311,0.695 0.694,0.695l0.694,0l0,0.694l-0.694,0c-0.383,0 -0.694,0.311 -0.694,0.694c0,0.383 0.311,0.694 0.694,0.694l0.694,0l0,0.694l-9.256,0l-2.893,-6.942l3.124,0l0,2.083c0,0.383 0.311,0.694 0.694,0.694c0.384,0 0.695,-0.311 0.695,-0.694l0,-2.777c0,-0.384 -0.311,-0.694 -0.695,-0.694l-4.859,0l-4.166,0l-4.86,0c-0.383,0 -0.694,0.31 -0.694,0.694l0,2.777c0,0.383 0.311,0.694 0.694,0.694c0.384,0 0.695,-0.311 0.695,-0.694l0,-2.083l3.124,0l-2.893,6.942l-9.256,0l0,-0.694l0.694,0c0.383,0 0.694,-0.311 0.694,-0.694c0,-0.383 -0.311,-0.694 -0.694,-0.694l-0.694,0l0,-0.694l0.694,0c0.383,0 0.694,-0.311 0.694,-0.695c0,-0.383 -0.311,-0.694 -0.694,-0.694l-0.694,0l0,-0.694l0.694,0c0.383,0 0.694,-0.311 0.694,-0.694c0,-0.384 -0.311,-0.694 -0.694,-0.694l-2.777,0c-0.384,0 -0.695,0.31 -0.695,0.694c0,0.383 0.311,0.694 0.695,0.694l0.694,0l0,0.694l-0.694,0c-0.384,0 -0.695,0.311 -0.695,0.694c0,0.384 0.311,0.695 0.695,0.695l0.694,0l0,0.694l-0.694,0c-0.384,0 -0.695,0.311 -0.695,0.694c0,0.383 0.311,0.694 0.695,0.694l0.694,0l0,1.366c-0.01,0.237 0.096,0.478 0.344,0.621c0.008,0.005 0.015,0.01 0.023,0.014c0,0 0,0 0,0l10.047,5.358l0,5.832l-9.025,0l0,-0.694l0.694,0c0.383,0 0.694,-0.311 0.694,-0.694c0,-0.384 -0.311,-0.695 -0.694,-0.695l-0.694,0l0,-0.694l0.694,0c0.383,0 0.694,-0.311 0.694,-0.694c0,-0.384 -0.311,-0.694 -0.694,-0.694l-0.694,0l0,-0.694l0.694,0c0.383,0 0.694,-0.311 0.694,-0.695c0,-0.383 -0.311,-0.694 -0.694,-0.694l-2.777,0c-0.384,0 -0.695,0.311 -0.695,0.694c0,0.384 0.311,0.695 0.695,0.695l0.694,0l0,0.694l-0.694,0c-0.384,0 -0.695,0.311 -0.695,0.694c0,0.383 0.311,0.694 0.695,0.694l0.694,0l0,0.694l-0.694,0c-0.384,0 -0.695,0.311 -0.695,0.695c0,0.383 0.311,0.694 0.695,0.694l0.694,0l0,1.366c-0.01,0.236 0.096,0.478 0.344,0.621c0.008,0.004 0.015,0.009 0.023,0.013c0,0 0,0.001 0,0.001l9.7,5.173l-4.319,12.959l-9.219,0c-0.384,0 -0.694,0.311 -0.694,0.694c0,0.384 0.31,0.694 0.694,0.694l40.266,0c0.384,0 0.694,-0.31 0.694,-0.694c0,-0.383 -0.31,-0.694 -0.694,-0.694Zm-20.133,-30.547l4.86,0l0,4.166l-9.72,0l0,-4.166l4.86,0Zm5.063,18.051l0.222,0l3.626,10.878l-7.881,-7.196l4.033,-3.682Zm-5.063,2.742l-3.004,-2.742l6.008,0l-3.004,2.742Zm1.31,-12.462l3.55,-2.219l0,4.438l-3.55,-2.219Zm1.823,2.777l-6.266,0l3.133,-1.958l3.133,1.958Zm-3.133,-3.596l-3.133,-1.958l6.266,0l-3.133,1.958Zm-1.31,0.819l-3.55,2.219l0,-4.438l3.55,2.219Zm6.17,4.166l0,3.859l-0.336,0.306l-9.048,0l-0.336,-0.306l0,-3.859l9.72,0Zm-10.145,5.554l0.222,0l4.033,3.682l-7.881,7.196l3.626,-10.878Zm5.285,4.622l8.624,7.874l-17.248,0l8.624,-7.874Zm13.191,-10.176l-6.943,3.702l0,-3.702l6.943,0Zm-6.943,-8.794l0,-3.703l6.943,0l-6.943,3.703Zm-7.868,-12.034l3.24,0l2.893,6.942l-4.513,0l-4.513,0l2.893,-6.942Zm-11.571,8.331l6.943,0l0,3.703l-6.943,-3.703Zm6.943,12.497l0,3.702l-6.943,-3.702l6.943,0Z" style="fill:#fff;fill-rule:nonzero;"/></g></svg>