<?xml version="1.0" encoding="UTF-8" standalone="no"?><!DOCTYPE svg PUBLIC "-//W3C//DTD SVG 1.1//EN" "http://www.w3.org/Graphics/SVG/1.1/DTD/svg11.dtd"><svg width="100%" height="100%" viewBox="0 0 53 45" version="1.1" xmlns="http://www.w3.org/2000/svg" xmlns:xlink="http://www.w3.org/1999/xlink" xml:space="preserve" xmlns:serif="http://www.serif.com/" style="fill-rule:evenodd;clip-rule:evenodd;stroke-linejoin:round;stroke-miterlimit:1.41421;"><rect id="Artboard1" x="0" y="0" width="52.5" height="45" style="fill:none;"/><g><path d="M34.344,30.906l-5.603,0l0,-0.288c1.237,-0.28 2.401,-0.762 3.471,-1.436l1.082,1.082l3.522,-3.522l-1.082,-1.082c0.674,-1.07 1.156,-2.234 1.436,-3.471l1.533,0l0,-3.736l2.49,0l0,-1.245l-1.245,0c0,-6.473 -4.542,-12.042 -10.841,-13.38c-0.323,-0.559 -0.921,-0.941 -1.612,-0.941l-2.49,0c-0.691,0 -1.289,0.382 -1.612,0.941c-6.299,1.338 -10.841,6.907 -10.841,13.38l-1.245,0l0,1.245l2.49,0l0,3.736l1.533,0c0.28,1.237 0.762,2.401 1.436,3.471l-1.082,1.082l3.522,3.522l1.082,-1.082c1.07,0.674 2.234,1.156 3.471,1.436l0,0.288l-5.603,0c-0.117,0 -0.231,0.014 -0.348,0.017l-3.501,-3.502c0.075,-0.295 0.113,-0.588 0.113,-0.874c0,-2.47 -2.428,-4.427 -4.997,-3.505l-0.923,0.333l1.926,1.927l-0.987,0.987l-1.927,-1.927l-0.333,0.923c-0.153,0.427 -0.231,0.852 -0.231,1.262c0,2.06 1.676,3.736 3.736,3.736c0.286,0 0.579,-0.038 0.874,-0.113l1.82,1.82c-3.793,1.798 -6.43,5.654 -6.43,10.123l1.246,0c0,-2.815 1.178,-5.356 3.062,-7.17c1.637,2.026 2.541,4.563 2.541,7.17l1.246,0c0,-0.417 -0.027,-0.832 -0.068,-1.245l10.652,0l0,1.245l1.246,0l0,-1.245l10.652,0c-0.041,0.413 -0.068,0.828 -0.068,1.245l1.246,0c0,-2.607 0.904,-5.144 2.541,-7.17c1.884,1.814 3.062,4.355 3.062,7.17l1.246,0c0,-6.18 -5.028,-11.207 -11.208,-11.207Zm-20.547,-13.698c0,-5.706 3.883,-10.639 9.34,-12.043l0,7.062l1.245,0l0,-7.472c0,-0.344 0.279,-0.623 0.623,-0.623l2.49,0c0.344,0 0.623,0.279 0.623,0.623l0,7.472l1.245,0l0,-7.062c5.457,1.404 9.34,6.337 9.34,12.043l-1.072,0l-0.623,1.868l-21.516,0l-0.623,-1.868l-1.072,0Zm18.02,3.113c-0.311,2.797 -2.687,4.981 -5.567,4.981c-2.88,0 -5.256,-2.184 -5.567,-4.981l11.134,0Zm-11.254,7.55l-0.428,-0.298l-0.929,0.93l-1.762,-1.761l0.93,-0.93l-0.298,-0.427c-0.823,-1.182 -1.37,-2.504 -1.624,-3.929l-0.091,-0.513l-1.318,0l0,-0.622l4.39,0c0.315,3.485 3.251,6.226 6.817,6.226c3.566,0 6.502,-2.741 6.817,-6.226l4.39,0l0,0.622l-1.318,0l-0.091,0.513c-0.254,1.425 -0.801,2.747 -1.624,3.929l-0.298,0.428l0.93,0.93l-1.762,1.761l-0.929,-0.93l-0.428,0.298c-1.182,0.823 -2.503,1.37 -3.929,1.624l-0.513,0.091l0,1.319l-2.49,0l0,-1.319l-0.513,-0.092c-1.425,-0.254 -2.747,-0.8 -3.929,-1.624Zm-8.667,0.875l-0.373,0.134c-0.294,0.106 -0.569,0.158 -0.839,0.158c-1.281,0 -2.34,-0.973 -2.476,-2.218l1.231,1.23l2.748,-2.748l-1.23,-1.231c1.245,0.136 2.218,1.195 2.218,2.476c0,0.27 -0.052,0.545 -0.158,0.84l-0.134,0.372l3.328,3.328c-0.541,0.095 -1.068,0.226 -1.579,0.396l-2.736,-2.737Zm13.731,10.876l-10.842,0c-0.402,-1.998 -1.28,-3.885 -2.576,-5.482c1.662,-1.243 3.716,-1.989 5.947,-1.989l2.179,0l5.292,7.057l0,0.414Zm0.623,-1.66l-4.358,-5.811l8.716,0l-4.358,5.811Zm11.465,1.66l-10.842,0l0,-0.414l5.292,-7.057l2.179,0c2.231,0 4.285,0.746 5.947,1.989c-1.296,1.597 -2.173,3.484 -2.576,5.482Z" style="fill:#fff;fill-rule:nonzero;"/><rect x="16.288" y="15.962" width="19.924" height="1.245" style="fill:#fff;"/></g></svg>