<?xml version="1.0" encoding="UTF-8" standalone="no"?><!DOCTYPE svg PUBLIC "-//W3C//DTD SVG 1.1//EN" "http://www.w3.org/Graphics/SVG/1.1/DTD/svg11.dtd"><svg width="100%" height="100%" viewBox="0 0 53 45" version="1.1" xmlns="http://www.w3.org/2000/svg" xmlns:xlink="http://www.w3.org/1999/xlink" xml:space="preserve" xmlns:serif="http://www.serif.com/" style="fill-rule:evenodd;clip-rule:evenodd;stroke-linejoin:round;stroke-miterlimit:1.41421;"><rect id="Artboard1" x="0" y="0" width="52.5" height="45" style="fill:none;"/><g><path d="M16.533,18.613c-0.358,0 -0.648,0.29 -0.648,0.648l0,1.295c0,0.871 0.576,1.61 1.366,1.856c0.199,1.362 0.844,5.218 1.982,6.925l0.102,0.155c0.832,1.261 2.224,3.373 6.915,3.373c4.691,0 6.083,-2.112 6.915,-3.373l0.102,-0.155c1.138,-1.707 1.783,-5.563 1.982,-6.925c0.353,-0.11 0.658,-0.321 0.894,-0.596c0.27,-0.077 0.472,-0.316 0.472,-0.612l0,-1.943c0,-0.358 -0.29,-0.648 -0.648,-0.648c-0.358,0 -0.648,0.29 -0.648,0.648l0,1.295c0,0.357 -0.29,0.648 -0.647,0.648c-0.327,0 -0.603,0.244 -0.643,0.568c-0.176,1.399 -0.847,5.357 -1.84,6.846l-0.106,0.161c-0.776,1.178 -1.84,2.79 -5.833,2.79c-3.993,0 -5.057,-1.612 -5.833,-2.79l-0.106,-0.161c-0.992,-1.488 -1.664,-5.447 -1.84,-6.846c-0.04,-0.324 -0.316,-0.568 -0.643,-0.568c-0.357,0 -0.647,-0.291 -0.647,-0.648l0,-1.295c0,-0.358 -0.29,-0.648 -0.648,-0.648Z" style="fill:#fff;fill-rule:nonzero;"/><path d="M13.327,16.669c0,0.358 0.289,0.648 0.648,0.648l24.583,0c0.359,0 0.648,-0.29 0.648,-0.648l0,-2.591c0,-0.088 -0.018,-0.172 -0.05,-0.249c-0.011,-0.026 -0.032,-0.046 -0.046,-0.07c-0.027,-0.047 -0.052,-0.095 -0.09,-0.134c-0.022,-0.023 -0.053,-0.037 -0.079,-0.056c-0.04,-0.03 -0.076,-0.062 -0.123,-0.082c-0.031,-0.015 -0.068,-0.016 -0.103,-0.025c-0.043,-0.011 -0.084,-0.029 -0.13,-0.031c-1.41,-4.482 -5.155,-7.861 -9.744,-8.796l0,-0.487c0,-0.252 -0.148,-0.482 -0.377,-0.588c-0.043,-0.021 -1.087,-0.495 -2.214,-0.495c-1.127,0 -2.171,0.474 -2.214,0.495c-0.23,0.106 -0.377,0.336 -0.377,0.588l0,0.487c-4.59,0.935 -8.336,4.315 -9.745,8.798c-0.011,0.001 -0.02,0.008 -0.031,0.01c-0.329,0.03 -0.589,0.298 -0.589,0.635c0,0.058 0.019,0.11 0.033,0.163l0,2.428Zm12.923,-0.647c-1.429,0 -2.591,-1.163 -2.591,-2.592c0,-1.429 1.162,-2.591 2.591,-2.591c1.429,0 2.591,1.162 2.591,2.591c0,1.429 -1.162,2.592 -2.591,2.592Zm-11.628,-1.296l2.559,0c0.358,0 0.647,-0.29 0.647,-0.648c0,-0.357 -0.289,-0.648 -0.647,-0.648l-1.9,0c1.328,-3.755 4.501,-6.583 8.378,-7.467l0,1.637c0,0.358 0.289,0.648 0.647,0.648c0.359,0 0.648,-0.29 0.648,-0.648l0,-3.006c0.322,-0.106 0.807,-0.233 1.296,-0.233c0.489,0 0.975,0.127 1.296,0.233l0,3.006c0,0.358 0.289,0.648 0.647,0.648c0.359,0 0.648,-0.29 0.648,-0.648l0,-1.637c3.877,0.884 7.05,3.712 8.378,7.467l-1.9,0c-0.358,0 -0.648,0.291 -0.648,0.648c0,0.358 0.29,0.648 0.648,0.648l2.591,0l0,1.296l-8.771,0c0.618,-0.689 0.998,-1.595 0.998,-2.592c0,-2.143 -1.743,-3.887 -3.887,-3.887c-2.144,0 -3.887,1.744 -3.887,3.887c0,0.997 0.38,1.903 0.998,2.592l-8.739,0l0,-1.296Z" style="fill:#fff;fill-rule:nonzero;"/><path d="M25.602,27.682c-0.358,0 -0.648,0.29 -0.648,0.648c0,0.358 0.29,0.648 0.648,0.648l1.296,0c0.358,0 0.648,-0.29 0.648,-0.648c0,-0.358 -0.29,-0.648 -0.648,-0.648l-1.296,0Z" style="fill:#fff;fill-rule:nonzero;"/><path d="M45.651,41.082l-0.648,-1.944c-0.673,-2.018 -2.157,-4.069 -7.504,-4.731c-0.041,-0.016 -0.079,-0.04 -0.124,-0.048c-0.08,-0.014 -0.159,-0.008 -0.234,0.005c-1.058,-0.114 -2.262,-0.177 -3.632,-0.177l-0.002,0c-0.044,-0.01 -0.084,-0.027 -0.13,-0.027c-0.019,0 -1.81,-0.009 -2.951,-0.579c-0.32,-0.16 -0.708,-0.03 -0.869,0.29c-0.16,0.32 -0.03,0.709 0.29,0.869c0.865,0.432 1.955,0.603 2.695,0.671c-0.513,1.566 -2.15,5.227 -6.292,5.227c-4.166,0 -5.782,-3.634 -6.291,-5.227c0.74,-0.068 1.829,-0.239 2.694,-0.671c0.32,-0.16 0.45,-0.549 0.289,-0.869c-0.16,-0.32 -0.548,-0.45 -0.868,-0.29c-1.141,0.57 -2.932,0.579 -2.951,0.579c-8.759,0 -10.764,2.393 -11.626,4.978l-0.648,1.944c-0.113,0.339 0.07,0.706 0.41,0.819c0.342,0.113 0.705,-0.071 0.819,-0.41l0.647,-1.943c0.444,-1.33 1.151,-3.436 7.251,-3.966c0.171,1.088 0.557,3.747 0.557,5.704c0,0.358 0.289,0.648 0.648,0.648c0.358,0 0.647,-0.29 0.647,-0.648c0,-2 -0.368,-4.603 -0.554,-5.789c0.43,-0.02 0.877,-0.033 1.352,-0.038c0.483,1.626 2.363,6.475 7.624,6.475c5.26,0 7.141,-4.83 7.624,-6.45c0.974,0.009 1.846,0.052 2.633,0.122c-0.189,1.217 -0.54,3.729 -0.54,5.68c0,0.358 0.29,0.648 0.648,0.648c0.358,0 0.648,-0.29 0.648,-0.648c0,-1.868 0.352,-4.367 0.533,-5.53c4.952,0.726 5.622,2.723 5.979,3.792l0.647,1.943c0.09,0.271 0.343,0.444 0.615,0.444c0.068,0 0.136,-0.011 0.204,-0.034c0.34,-0.113 0.523,-0.48 0.41,-0.819Z" style="fill:#fff;fill-rule:nonzero;"/><path d="M25.96,25.159c-1.133,0.567 -2.291,0.58 -2.301,0.58c-0.359,0 -0.648,0.29 -0.648,0.647c0,0.358 0.289,0.648 0.648,0.648c0.055,0 1.279,-0.007 2.591,-0.58c1.312,0.573 2.536,0.58 2.591,0.58c0.357,0 0.646,-0.289 0.647,-0.646c0.001,-0.357 -0.288,-0.647 -0.645,-0.649c-0.012,0 -1.17,-0.013 -2.303,-0.58c-0.182,-0.091 -0.398,-0.091 -0.58,0Z" style="fill:#fff;fill-rule:nonzero;"/><path d="M24.307,19.908l-2.592,0c-0.358,0 -0.647,0.291 -0.647,0.648c0,0.358 0.289,0.648 0.647,0.648l0.648,0c0,0.358 0.29,0.648 0.648,0.648c0.358,0 0.648,-0.29 0.648,-0.648l0.647,0c0.359,0 0.648,-0.29 0.648,-0.648c0,-0.357 -0.289,-0.648 -0.647,-0.648Z" style="fill:#fff;fill-rule:nonzero;"/><path d="M28.841,21.204c0,0.358 0.29,0.648 0.648,0.648c0.358,0 0.648,-0.29 0.648,-0.648l0.648,0c0.358,0 0.647,-0.29 0.647,-0.648c0,-0.357 -0.289,-0.648 -0.647,-0.648l-2.592,0c-0.358,0 -0.647,0.291 -0.647,0.648c0,0.358 0.289,0.648 0.647,0.648l0.648,0Z" style="fill:#fff;fill-rule:nonzero;"/></g></svg>