<?xml version="1.0" encoding="UTF-8" standalone="no"?>
<!DOCTYPE svg PUBLIC "-//W3C//DTD SVG 1.1//EN" "http://www.w3.org/Graphics/SVG/1.1/DTD/svg11.dtd">
<svg width="100%" height="100%" viewBox="0 0 53 45" version="1.1" xmlns="http://www.w3.org/2000/svg" xmlns:xlink="http://www.w3.org/1999/xlink" xml:space="preserve" xmlns:serif="http://www.serif.com/" style="fill-rule:evenodd;clip-rule:evenodd;stroke-linejoin:round;stroke-miterlimit:1.41421;"><rect id="Artboard1" x="0" y="0" width="52.5" height="45" style="fill:none;"/><g><path d="M46.859,1.619l-41.218,0c-1.561,0 -2.83,1.269 -2.83,2.83l0,28.458c0,1.561 1.269,2.83 2.83,2.83l14.124,0l0,2.059c0,1.888 -1.536,3.424 -3.424,3.424l-3.112,0c-0.597,0 -1.081,0.484 -1.081,1.081c0,0.596 0.484,1.08 1.081,1.08l26.042,0c0.597,0 1.081,-0.484 1.081,-1.08c0,-0.597 -0.484,-1.081 -1.081,-1.081l-3.112,0c-1.888,0 -3.424,-1.536 -3.424,-3.424l0,-2.059l14.124,0c1.56,0 2.83,-1.269 2.83,-2.83l0,-28.458c0,-1.561 -1.269,-2.83 -2.83,-2.83Zm-26.11,39.601c0.737,-0.946 1.177,-2.134 1.177,-3.423l0,-2.06l8.648,0l0,2.06c0,1.289 0.44,2.477 1.177,3.423l-11.002,0Zm26.779,-8.313c0,0.369 -0.3,0.669 -0.669,0.669l-41.218,0c-0.369,0 -0.669,-0.3 -0.669,-0.669l0,-5.679l42.556,0l0,5.679Zm0,-7.841l-42.556,0l0,-20.617c0,-0.369 0.3,-0.669 0.669,-0.669l41.218,0c0.369,0 0.669,0.3 0.669,0.669l0,20.617l0,0Z" style="fill:#fff;fill-rule:nonzero;"/><circle cx="26.25" cy="30.402" r="1.166" style="fill:#fff;"/><path d="M28.103,9.064c-0.422,-0.422 -1.106,-0.422 -1.528,0l-7.638,7.637c-0.422,0.422 -0.422,1.107 0,1.529c0.211,0.211 0.488,0.316 0.765,0.316c0.276,0 0.553,-0.105 0.764,-0.316l7.637,-7.638c0.422,-0.422 0.422,-1.106 0,-1.528Z" style="fill:#fff;fill-rule:nonzero;"/><path d="M32.63,13.49c-0.422,-0.422 -1.106,-0.422 -1.529,0l-3.042,3.042c-0.422,0.422 -0.422,1.107 0,1.529c0.211,0.211 0.487,0.316 0.764,0.316c0.277,0 0.553,-0.105 0.764,-0.316l3.043,-3.043c0.422,-0.422 0.422,-1.106 0,-1.528Z" style="fill:#fff;fill-rule:nonzero;"/></g></svg>