<?xml version="1.0" encoding="UTF-8" standalone="no"?>
<!DOCTYPE svg PUBLIC "-//W3C//DTD SVG 1.1//EN" "http://www.w3.org/Graphics/SVG/1.1/DTD/svg11.dtd">
<svg width="100%" height="100%" viewBox="0 0 53 45" version="1.1" xmlns="http://www.w3.org/2000/svg" xmlns:xlink="http://www.w3.org/1999/xlink" xml:space="preserve" xmlns:serif="http://www.serif.com/" style="fill-rule:evenodd;clip-rule:evenodd;stroke-linejoin:round;stroke-miterlimit:1.41421;"><rect id="Artboard1" x="0" y="0" width="52.5" height="45" style="fill:none;"/><g><path d="M11.18,36.914c-2.528,0 -4.586,2.058 -4.586,4.587c0,0.362 0.293,0.655 0.655,0.655l7.863,0c0.362,0 0.655,-0.293 0.655,-0.655c0,-2.529 -2.058,-4.587 -4.587,-4.587Zm-3.209,3.932c0.26,-1.281 1.273,-2.288 2.554,-2.549l0,1.238l1.311,0l0,-1.238c1.281,0.262 2.293,1.268 2.554,2.549l-6.419,0Z" style="fill:#fff;fill-rule:nonzero;"/><path d="M45.251,31.018l-1.149,0c-0.037,-0.092 -0.074,-0.182 -0.114,-0.273l0.813,-0.813c0.256,-0.256 0.256,-0.67 0,-0.927l-2.78,-2.779c-0.135,-0.136 -0.314,-0.194 -0.492,-0.186c1.039,-0.551 1.756,-1.63 1.756,-2.885l0,-17.035c0,-1.806 -1.469,-3.276 -3.276,-3.276l-30.139,0c-1.806,0 -3.276,1.47 -3.276,3.276l0,17.035c0,1.807 1.47,3.276 3.276,3.276l8.55,0l-2.475,4.587l-0.178,0l-0.983,0c-1.264,0 -2.293,1.028 -2.293,2.293c0,1.264 1.029,2.293 2.293,2.293l14.087,0c0,0.362 0.293,0.655 0.655,0.655l1.149,0c0.036,0.091 0.074,0.182 0.114,0.273l-0.813,0.813c-0.256,0.256 -0.256,0.67 0,0.926l2.779,2.78c0.257,0.256 0.671,0.256 0.927,0l0.813,-0.813c0.091,0.04 0.181,0.077 0.273,0.114l0,1.149c0,0.362 0.292,0.655 0.655,0.655l3.931,0c0.362,0 0.655,-0.293 0.655,-0.655l0,-1.149c0.091,-0.037 0.182,-0.074 0.273,-0.114l0.813,0.813c0.256,0.256 0.67,0.256 0.926,0l2.78,-2.78c0.256,-0.256 0.256,-0.67 0,-0.926l-0.813,-0.813c0.04,-0.091 0.077,-0.182 0.114,-0.273l1.149,0c0.362,0 0.655,-0.293 0.655,-0.655l0,-3.931c0,-0.363 -0.293,-0.655 -0.655,-0.655Zm-37.347,-24.898c0,-1.084 0.882,-1.966 1.966,-1.966l30.139,0c1.084,0 1.966,0.882 1.966,1.966l0,13.759l-34.071,0l0,-13.759Zm1.966,19.001c-1.084,0 -1.966,-0.882 -1.966,-1.966l0,-1.965l34.071,0l0,1.965c0,1.084 -0.882,1.966 -1.966,1.966l-0.655,0l-3.931,0l-5.062,0l-10.843,0l-9.648,0Zm31.216,1.114l-0.804,0.804c-0.091,-0.04 -0.182,-0.078 -0.273,-0.114l0,-0.494c0.38,0 0.738,-0.077 1.077,-0.196Zm-6.318,0.196l0,0.494c-0.092,0.036 -0.182,0.074 -0.273,0.114l-0.608,-0.608l0.881,0Zm-2.218,0l-0.565,0.565l-0.385,-0.565l0.95,0Zm-3.679,7.863l-14.087,0c-0.542,0 -0.983,-0.441 -0.983,-0.983c0,-0.542 0.441,-0.983 0.983,-0.983l14.087,0l0,1.966Zm-11.437,-3.277l2.475,-4.586l10.106,0l1.027,1.508l-1.066,1.066c-0.256,0.256 -0.256,0.67 0,0.926l0.813,0.813c-0.04,0.091 -0.078,0.182 -0.114,0.273l-1.149,0l-12.092,0Zm27.162,3.932l-0.956,0c-0.287,0 -0.539,0.185 -0.625,0.458c-0.1,0.316 -0.234,0.639 -0.4,0.956c-0.132,0.254 -0.085,0.564 0.118,0.766l0.679,0.679l-1.853,1.853l-0.679,-0.679c-0.203,-0.202 -0.512,-0.249 -0.767,-0.118c-0.317,0.166 -0.639,0.3 -0.956,0.4c-0.273,0.087 -0.458,0.339 -0.458,0.626l0,0.956l-2.621,0l0,-0.956c0,-0.287 -0.185,-0.539 -0.458,-0.625c-0.316,-0.1 -0.639,-0.234 -0.956,-0.4c-0.254,-0.132 -0.564,-0.085 -0.767,0.118l-0.678,0.679l-1.853,-1.853l0.679,-0.679c0.202,-0.203 0.25,-0.512 0.118,-0.767c-0.166,-0.317 -0.301,-0.639 -0.4,-0.956c-0.087,-0.273 -0.34,-0.458 -0.626,-0.458l-0.956,0l0,-2.621l0.956,0c0.286,0 0.539,-0.185 0.625,-0.458c0.1,-0.316 0.234,-0.639 0.4,-0.956c0.132,-0.254 0.084,-0.564 -0.118,-0.767l-0.679,-0.678l1.853,-1.853l0.679,0.679c0.202,0.203 0.512,0.25 0.766,0.118c0.318,-0.166 0.64,-0.301 0.956,-0.4c0.274,-0.087 0.459,-0.34 0.459,-0.626l0,-0.956l2.621,0l0,0.956c0,0.286 0.185,0.539 0.458,0.625c0.316,0.1 0.639,0.234 0.956,0.4c0.254,0.132 0.563,0.085 0.766,-0.118l0.679,-0.679l1.853,1.853l-0.679,0.679c-0.202,0.202 -0.25,0.512 -0.118,0.766c0.166,0.318 0.3,0.64 0.4,0.956c0.087,0.274 0.339,0.459 0.626,0.459l0.956,0l0,2.621Z" style="fill:#fff;fill-rule:nonzero;"/><path d="M37.388,29.707c-2.168,0 -3.931,1.763 -3.931,3.931c0,2.168 1.763,3.932 3.931,3.932c2.168,0 3.932,-1.764 3.932,-3.932c0,-2.168 -1.764,-3.931 -3.932,-3.931Zm0,6.552c-1.445,0 -2.62,-1.175 -2.62,-2.621c0,-1.445 1.175,-2.62 2.62,-2.62c1.446,0 2.621,1.175 2.621,2.62c0,1.446 -1.175,2.621 -2.621,2.621Z" style="fill:#fff;fill-rule:nonzero;"/><path d="M19.506,7.894l-0.926,-0.927l-4.587,4.587c-0.256,0.256 -0.256,0.67 0,0.926l4.587,4.586l0.926,-0.926l-4.123,-4.123l4.123,-4.123Z" style="fill:#fff;fill-rule:nonzero;"/><path d="M33.92,11.554l-4.586,-4.587l-0.926,0.927l4.123,4.123l-4.123,4.123l0.926,0.926l4.586,-4.586c0.257,-0.256 0.257,-0.67 0,-0.926Z" style="fill:#fff;fill-rule:nonzero;"/><path d="M26.317,5.175l-5.895,11.791l1.172,0.586l5.895,-11.791l-1.172,-0.586Z" style="fill:#fff;"/><rect x="32.147" y="15.948" width="1.31" height="1.31" style="fill:#fff;"/><rect x="34.768" y="15.948" width="1.31" height="1.31" style="fill:#fff;"/><rect x="37.388" y="15.948" width="1.31" height="1.31" style="fill:#fff;"/></g></svg>