<?xml version="1.0" encoding="UTF-8" standalone="no"?>
<!DOCTYPE svg PUBLIC "-//W3C//DTD SVG 1.1//EN" "http://www.w3.org/Graphics/SVG/1.1/DTD/svg11.dtd">
<svg width="100%" height="100%" viewBox="0 0 53 45" version="1.1" xmlns="http://www.w3.org/2000/svg" xmlns:xlink="http://www.w3.org/1999/xlink" xml:space="preserve" xmlns:serif="http://www.serif.com/" style="fill-rule:evenodd;clip-rule:evenodd;stroke-linejoin:round;stroke-miterlimit:1.41421;"><rect id="Artboard1" x="0" y="0" width="52.5" height="45" style="fill:none;"/><g><path d="M21.366,12.732c-0.908,0 -1.676,0.585 -1.964,1.395l-7.234,0c-0.289,-0.81 -1.056,-1.395 -1.965,-1.395c-1.154,0 -2.093,0.939 -2.093,2.093c0,1.154 0.939,2.093 2.093,2.093c0.909,0 1.676,-0.585 1.965,-1.395l7.234,0c0.289,0.81 1.057,1.395 1.965,1.395c1.154,0 2.093,-0.939 2.093,-2.093c0,-1.154 -0.94,-2.093 -2.094,-2.093Zm-11.163,2.791c-0.384,0 -0.697,-0.313 -0.697,-0.698c0,-0.385 0.313,-0.698 0.697,-0.698c0.385,0 0.698,0.313 0.698,0.698c0,0.385 -0.313,0.698 -0.698,0.698Zm11.163,0c-0.384,0 -0.697,-0.313 -0.697,-0.698c0,-0.385 0.313,-0.698 0.697,-0.698c0.385,0 0.698,0.313 0.698,0.698c0,0.385 -0.313,0.698 -0.698,0.698Z" style="fill:#fff;fill-rule:nonzero;"/><path d="M26.948,17.047l0,-4.315c0,-0.186 -0.074,-0.363 -0.205,-0.493l-2.79,-2.791c-0.131,-0.131 -0.309,-0.204 -0.494,-0.204l-2.221,0c-0.289,-0.81 -1.056,-1.396 -1.965,-1.396c-1.154,0 -2.093,0.939 -2.093,2.093c0,1.154 0.939,2.093 2.093,2.093c0.909,0 1.676,-0.585 1.965,-1.395l1.932,0l2.382,2.382l0,4.026c-0.81,0.288 -1.395,1.056 -1.395,1.964c0,1.154 0.939,2.093 2.093,2.093c1.154,0 2.093,-0.939 2.093,-2.093c0,-0.908 -0.585,-1.676 -1.395,-1.964Zm-7.675,-6.408c-0.384,0 -0.698,-0.313 -0.698,-0.698c0,-0.385 0.314,-0.697 0.698,-0.697c0.385,0 0.698,0.312 0.698,0.697c0,0.385 -0.313,0.698 -0.698,0.698Zm6.977,9.07c-0.384,0 -0.698,-0.313 -0.698,-0.698c0,-0.385 0.314,-0.697 0.698,-0.697c0.384,0 0.698,0.312 0.698,0.697c0,0.385 -0.314,0.698 -0.698,0.698Z" style="fill:#fff;fill-rule:nonzero;"/><path d="M39.506,19.709c-0.322,0 -0.624,0.079 -0.897,0.21l-1.196,-1.197l0,-6.688c0,-0.185 -0.073,-0.362 -0.204,-0.493l-6.983,-6.982c0.131,-0.273 0.21,-0.574 0.21,-0.897c0,-1.154 -0.939,-2.093 -2.093,-2.093c-1.154,0 -2.093,0.939 -2.093,2.093c0,1.154 0.939,2.093 2.093,2.093c0.322,0 0.624,-0.079 0.897,-0.21l6.778,6.778l0,6.688c0,0.186 0.073,0.363 0.204,0.493l1.401,1.401c-0.131,0.273 -0.21,0.575 -0.21,0.897c0,1.154 0.939,2.093 2.093,2.093c1.154,0 2.093,-0.939 2.093,-2.093c0,-1.154 -0.939,-2.093 -2.093,-2.093Zm-11.163,-15.349c-0.384,0 -0.698,-0.313 -0.698,-0.698c0,-0.385 0.314,-0.697 0.698,-0.697c0.384,0 0.698,0.312 0.698,0.697c0,0.385 -0.314,0.698 -0.698,0.698Zm11.163,18.14c-0.384,0 -0.698,-0.313 -0.698,-0.698c0,-0.385 0.314,-0.698 0.698,-0.698c0.384,0 0.698,0.313 0.698,0.698c0,0.385 -0.314,0.698 -0.698,0.698Z" style="fill:#fff;fill-rule:nonzero;"/><path d="M45.785,11.465l0,-2.919c0,-0.186 -0.073,-0.363 -0.204,-0.493l-4.884,-4.884c-0.131,-0.131 -0.308,-0.204 -0.493,-0.204l-3.617,0c-0.289,-0.811 -1.056,-1.396 -1.965,-1.396c-1.154,0 -2.093,0.939 -2.093,2.093c0,1.154 0.939,2.093 2.093,2.093c0.909,0 1.676,-0.585 1.965,-1.395l3.328,0l4.475,4.475l0,2.63c-0.81,0.289 -1.396,1.056 -1.396,1.965c0,1.154 0.939,2.093 2.093,2.093c1.154,0 2.094,-0.939 2.094,-2.093c0,-0.909 -0.586,-1.676 -1.396,-1.965Zm-11.163,-7.105c-0.384,0 -0.697,-0.313 -0.697,-0.698c0,-0.385 0.313,-0.697 0.697,-0.697c0.385,0 0.698,0.312 0.698,0.697c0,0.385 -0.313,0.698 -0.698,0.698Zm10.465,9.767c-0.384,0 -0.697,-0.312 -0.697,-0.697c0,-0.385 0.313,-0.698 0.697,-0.698c0.385,0 0.698,0.313 0.698,0.698c0,0.385 -0.313,0.697 -0.698,0.697Z" style="fill:#fff;fill-rule:nonzero;"/><path d="M36.018,39.373l0,-10.025c0.81,-0.289 1.395,-1.056 1.395,-1.965c0,-1.154 -0.939,-2.093 -2.093,-2.093c-0.908,0 -1.676,0.586 -1.965,1.396l-7.233,0c-0.289,-0.81 -1.057,-1.396 -1.965,-1.396c-0.908,0 -1.676,0.586 -1.965,1.396l-4.025,0l-2.592,-2.592c0.131,-0.273 0.21,-0.574 0.21,-0.897c0,-1.154 -0.939,-2.093 -2.093,-2.093c-1.154,0 -2.093,0.939 -2.093,2.093c0,1.154 0.939,2.093 2.093,2.093c0.322,0 0.623,-0.078 0.896,-0.21l2.797,2.797c0.13,0.131 0.308,0.204 0.493,0.204l4.314,0c0.289,0.81 1.057,1.395 1.965,1.395c0.908,0 1.676,-0.585 1.965,-1.395l7.234,0c0.211,0.591 0.676,1.056 1.267,1.267l0,10.025c-0.81,0.289 -1.395,1.056 -1.395,1.965c0,1.154 0.939,2.093 2.093,2.093c1.154,0 2.093,-0.939 2.093,-2.093c0,-0.909 -0.586,-1.676 -1.396,-1.965Zm-22.326,-15.478c-0.385,0 -0.698,-0.313 -0.698,-0.698c0,-0.385 0.313,-0.697 0.698,-0.697c0.384,0 0.697,0.312 0.697,0.697c0,0.385 -0.313,0.698 -0.697,0.698Zm10.465,4.186c-0.384,0 -0.698,-0.312 -0.698,-0.698c0,-0.385 0.314,-0.697 0.698,-0.697c0.384,0 0.698,0.312 0.698,0.697c0,0.386 -0.314,0.698 -0.698,0.698Zm11.163,13.954c-0.385,0 -0.698,-0.313 -0.698,-0.698c0,-0.385 0.313,-0.698 0.698,-0.698c0.384,0 0.698,0.313 0.698,0.698c0,0.385 -0.314,0.698 -0.698,0.698Zm0,-13.954c-0.385,0 -0.698,-0.312 -0.698,-0.698c0,-0.385 0.313,-0.697 0.698,-0.697c0.384,0 0.698,0.312 0.698,0.697c0,0.386 -0.314,0.698 -0.698,0.698Z" style="fill:#fff;fill-rule:nonzero;"/><path d="M32.529,15.651l0,-2.221c0,-0.186 -0.073,-0.363 -0.204,-0.494l-8.378,-8.377c0.131,-0.273 0.21,-0.574 0.21,-0.897c0,-1.154 -0.939,-2.093 -2.093,-2.093c-0.908,0 -1.676,0.585 -1.965,1.396l-2.919,0c-0.385,0 -0.698,0.311 -0.698,0.697l0,1.804l-2.591,2.592c-0.273,-0.131 -0.575,-0.21 -0.897,-0.21c-1.154,0 -2.093,0.939 -2.093,2.093c0,1.154 0.939,2.093 2.093,2.093c1.154,0 2.093,-0.939 2.093,-2.093c0,-0.322 -0.079,-0.623 -0.21,-0.896l2.796,-2.796c0.132,-0.131 0.205,-0.308 0.205,-0.494l0,-1.395l2.221,0c0.289,0.81 1.057,1.395 1.965,1.395c0.322,0 0.624,-0.079 0.896,-0.21l8.174,8.174l0,1.932c-0.81,0.289 -1.396,1.056 -1.396,1.965c0,1.154 0.94,2.093 2.093,2.093c1.154,0 2.094,-0.939 2.094,-2.093c0,-0.909 -0.586,-1.676 -1.396,-1.965Zm-19.535,-5.012c-0.384,0 -0.698,-0.313 -0.698,-0.698c0,-0.385 0.314,-0.697 0.698,-0.697c0.384,0 0.698,0.312 0.698,0.697c0,0.385 -0.314,0.698 -0.698,0.698Zm9.07,-6.279c-0.385,0 -0.698,-0.313 -0.698,-0.698c0,-0.385 0.313,-0.697 0.698,-0.697c0.384,0 0.698,0.312 0.698,0.697c0,0.385 -0.314,0.698 -0.698,0.698Zm9.767,13.954c-0.384,0 -0.697,-0.313 -0.697,-0.698c0,-0.385 0.313,-0.698 0.697,-0.698c0.385,0 0.698,0.313 0.698,0.698c0,0.385 -0.313,0.698 -0.698,0.698Z" style="fill:#fff;fill-rule:nonzero;"/><path d="M30.436,21.104c-0.908,0 -1.676,0.586 -1.965,1.396l-8.211,0l-3.982,-3.982c-0.13,-0.131 -0.308,-0.204 -0.493,-0.204l-7.386,0l-1.684,-1.685l0,-5.701l5.382,-5.383c0.273,0.131 0.575,0.21 0.897,0.21c1.154,0 2.093,-0.939 2.093,-2.093c0,-1.154 -0.939,-2.093 -2.093,-2.093c-1.154,0 -2.093,0.939 -2.093,2.093c0,0.323 0.079,0.624 0.21,0.897l-5.587,5.587c-0.131,0.13 -0.205,0.307 -0.205,0.493l0,6.279c0,0.186 0.074,0.363 0.205,0.493l2.093,2.093c0.13,0.132 0.308,0.205 0.493,0.205l7.386,0l3.982,3.982c0.13,0.131 0.308,0.204 0.493,0.204l8.5,0c0.289,0.81 1.057,1.395 1.965,1.395c1.154,0 2.093,-0.939 2.093,-2.093c0,-1.154 -0.939,-2.093 -2.093,-2.093Zm-17.442,-18.139c0.384,0 0.698,0.312 0.698,0.697c0,0.385 -0.314,0.698 -0.698,0.698c-0.384,0 -0.698,-0.313 -0.698,-0.698c0,-0.385 0.314,-0.697 0.698,-0.697Zm17.442,20.93c-0.384,0 -0.698,-0.313 -0.698,-0.698c0,-0.385 0.314,-0.697 0.698,-0.697c0.385,0 0.698,0.312 0.698,0.697c0,0.385 -0.313,0.698 -0.698,0.698Z" style="fill:#fff;fill-rule:nonzero;"/><path d="M45.087,18.314c-0.322,0 -0.623,0.078 -0.896,0.21l-2.592,-2.592l0,-4.026c0.81,-0.289 1.395,-1.056 1.395,-1.965c0,-1.154 -0.939,-2.093 -2.093,-2.093c-1.154,0 -2.093,0.939 -2.093,2.093c0,0.909 0.586,1.676 1.396,1.965l0,4.314c0,0.186 0.073,0.363 0.204,0.494l2.796,2.796c-0.131,0.273 -0.21,0.574 -0.21,0.897c0,0.908 0.586,1.675 1.396,1.964l0,0.537l-5.377,5.378c-0.131,0.13 -0.205,0.307 -0.205,0.493l0,0.826c-0.81,0.289 -1.395,1.056 -1.395,1.965c0,0.908 0.585,1.675 1.395,1.964l0,1.653c-0.81,0.289 -1.395,1.056 -1.395,1.965c0,1.154 0.939,2.093 2.093,2.093c1.154,0 2.093,-0.939 2.093,-2.093c0,-0.909 -0.585,-1.676 -1.395,-1.965l0,-1.653c0.81,-0.289 1.395,-1.056 1.395,-1.964c0,-0.909 -0.585,-1.676 -1.395,-1.965l0,-0.537l5.377,-5.377c0.131,-0.131 0.204,-0.308 0.204,-0.494l0,-0.826c0.81,-0.289 1.396,-1.056 1.396,-1.964c0,-1.154 -0.94,-2.093 -2.094,-2.093Zm-4.186,-7.675c-0.384,0 -0.697,-0.313 -0.697,-0.698c0,-0.385 0.313,-0.697 0.697,-0.697c0.385,0 0.698,0.312 0.698,0.697c0,0.385 -0.313,0.698 -0.698,0.698Zm-1.395,27.21c-0.384,0 -0.698,-0.313 -0.698,-0.698c0,-0.385 0.314,-0.698 0.698,-0.698c0.384,0 0.698,0.313 0.698,0.698c0,0.385 -0.314,0.698 -0.698,0.698Zm0,-5.582c-0.384,0 -0.698,-0.312 -0.698,-0.697c0,-0.386 0.314,-0.698 0.698,-0.698c0.384,0 0.698,0.312 0.698,0.698c0,0.385 -0.314,0.697 -0.698,0.697Zm5.581,-11.163c-0.384,0 -0.697,-0.312 -0.697,-0.697c0,-0.386 0.313,-0.698 0.697,-0.698c0.385,0 0.698,0.312 0.698,0.698c0,0.385 -0.313,0.697 -0.698,0.697Z" style="fill:#fff;fill-rule:nonzero;"/></g></svg>