<?xml version="1.0" encoding="UTF-8" standalone="no"?>
<!DOCTYPE svg PUBLIC "-//W3C//DTD SVG 1.1//EN" "http://www.w3.org/Graphics/SVG/1.1/DTD/svg11.dtd">
<svg width="100%" height="100%" viewBox="0 0 53 45" version="1.1" xmlns="http://www.w3.org/2000/svg" xmlns:xlink="http://www.w3.org/1999/xlink" xml:space="preserve" xmlns:serif="http://www.serif.com/" style="fill-rule:evenodd;clip-rule:evenodd;stroke-linejoin:round;stroke-miterlimit:1.41421;"><rect id="Artboard1" x="0" y="0" width="52.5" height="45" style="fill:none;"/><g><path d="M14.027,24.362c0.189,0 0.374,-0.076 0.507,-0.21c0.133,-0.133 0.21,-0.317 0.21,-0.506c0,-0.188 -0.077,-0.373 -0.21,-0.506c-0.133,-0.134 -0.318,-0.21 -0.507,-0.21c-0.188,0 -0.373,0.076 -0.506,0.21c-0.133,0.133 -0.21,0.318 -0.21,0.506c0,0.189 0.077,0.373 0.21,0.506c0.133,0.134 0.318,0.21 0.506,0.21Z" style="fill:#fff;fill-rule:nonzero;"/><path d="M11.736,27.418c0.188,0 0.373,-0.077 0.506,-0.21c0.134,-0.133 0.21,-0.318 0.21,-0.507c0,-0.188 -0.076,-0.373 -0.21,-0.506c-0.133,-0.133 -0.318,-0.21 -0.506,-0.21c-0.188,0 -0.374,0.077 -0.506,0.21c-0.134,0.133 -0.21,0.318 -0.21,0.506c0,0.189 0.076,0.374 0.21,0.507c0.132,0.133 0.318,0.21 0.506,0.21Z" style="fill:#fff;fill-rule:nonzero;"/><path d="M40,24.362c0.188,0 0.374,-0.076 0.506,-0.21c0.134,-0.133 0.21,-0.318 0.21,-0.506c0,-0.188 -0.076,-0.373 -0.21,-0.506c-0.132,-0.134 -0.318,-0.21 -0.506,-0.21c-0.188,0 -0.373,0.076 -0.506,0.21c-0.133,0.133 -0.21,0.318 -0.21,0.506c0,0.188 0.077,0.373 0.21,0.506c0.133,0.134 0.318,0.21 0.506,0.21Z" style="fill:#fff;fill-rule:nonzero;"/><path d="M38.473,22.07c0.188,0 0.373,-0.076 0.506,-0.21c0.133,-0.133 0.21,-0.318 0.21,-0.506c0,-0.188 -0.077,-0.373 -0.21,-0.506c-0.133,-0.134 -0.318,-0.21 -0.506,-0.21c-0.189,0 -0.374,0.076 -0.507,0.21c-0.133,0.133 -0.21,0.318 -0.21,0.506c0,0.188 0.077,0.373 0.21,0.506c0.133,0.134 0.318,0.21 0.507,0.21Z" style="fill:#fff;fill-rule:nonzero;"/><path d="M38.473,28.182c0.188,0 0.373,-0.077 0.506,-0.211c0.133,-0.132 0.21,-0.317 0.21,-0.506c0,-0.188 -0.077,-0.373 -0.21,-0.506c-0.133,-0.133 -0.318,-0.21 -0.506,-0.21c-0.189,0 -0.374,0.077 -0.507,0.21c-0.133,0.133 -0.21,0.318 -0.21,0.506c0,0.189 0.077,0.374 0.21,0.506c0.133,0.134 0.318,0.211 0.507,0.211Z" style="fill:#fff;fill-rule:nonzero;"/><path d="M40,31.237c0.188,0 0.374,-0.076 0.506,-0.21c0.134,-0.133 0.21,-0.318 0.21,-0.506c0,-0.188 -0.076,-0.373 -0.21,-0.506c-0.132,-0.134 -0.318,-0.21 -0.506,-0.21c-0.189,0 -0.373,0.076 -0.506,0.21c-0.133,0.133 -0.21,0.318 -0.21,0.506c0,0.188 0.077,0.373 0.21,0.506c0.133,0.134 0.318,0.21 0.506,0.21Z" style="fill:#fff;fill-rule:nonzero;"/><path d="M27.014,26.654c0.188,0 0.373,-0.077 0.506,-0.21c0.134,-0.133 0.21,-0.317 0.21,-0.506c0,-0.189 -0.076,-0.374 -0.21,-0.507c-0.133,-0.133 -0.318,-0.21 -0.506,-0.21c-0.188,0 -0.373,0.077 -0.506,0.21c-0.134,0.133 -0.21,0.318 -0.21,0.507c0,0.189 0.076,0.373 0.21,0.506c0.133,0.133 0.318,0.21 0.506,0.21Z" style="fill:#fff;fill-rule:nonzero;"/><path d="M26.25,30.473c0.188,0 0.373,-0.076 0.506,-0.21c0.134,-0.133 0.21,-0.318 0.21,-0.506c0,-0.188 -0.076,-0.373 -0.21,-0.506c-0.133,-0.134 -0.318,-0.21 -0.506,-0.21c-0.188,0 -0.373,0.076 -0.506,0.21c-0.134,0.133 -0.21,0.317 -0.21,0.506c0,0.189 0.076,0.373 0.21,0.506c0.133,0.134 0.318,0.21 0.506,0.21Z" style="fill:#fff;fill-rule:nonzero;"/><path d="M14.027,30.473c0.189,0 0.374,-0.076 0.507,-0.21c0.133,-0.133 0.21,-0.318 0.21,-0.506c0,-0.189 -0.077,-0.373 -0.21,-0.506c-0.133,-0.134 -0.318,-0.21 -0.507,-0.21c-0.188,0 -0.373,0.076 -0.506,0.21c-0.133,0.133 -0.21,0.317 -0.21,0.506c0,0.188 0.077,0.373 0.21,0.506c0.133,0.134 0.318,0.21 0.506,0.21Z" style="fill:#fff;fill-rule:nonzero;"/><path d="M45.348,17.582l-1.576,0l0,-12.27c0,-0.447 0.364,-0.812 0.812,-0.812c0.395,0 0.716,-0.32 0.716,-0.716c0,-0.395 -0.321,-0.716 -0.716,-0.716l-10.695,0c-0.395,0 -0.716,0.321 -0.716,0.716c0,0.396 0.321,0.716 0.716,0.716c0.448,0 0.812,0.365 0.812,0.812l0,12.27l-3.915,0l0,-12.27c0,-0.447 0.364,-0.812 0.811,-0.812c0.396,0 0.717,-0.32 0.717,-0.716c0,-0.395 -0.321,-0.716 -0.717,-0.716l-10.694,0c-0.396,0 -0.717,0.321 -0.717,0.716c0,0.396 0.321,0.716 0.717,0.716c0.447,0 0.811,0.365 0.811,0.812l0,12.27l-3.915,0l0,-12.27c0,-0.447 0.364,-0.812 0.812,-0.812c0.395,0 0.716,-0.32 0.716,-0.716c0,-0.395 -0.321,-0.716 -0.716,-0.716l-10.695,0c-0.395,0 -0.716,0.321 -0.716,0.716c0,0.396 0.321,0.716 0.716,0.716c0.448,0 0.812,0.365 0.812,0.812l0,12.27l-1.576,0c-1.658,0 -3.008,1.35 -3.008,3.008l0,16.806c0,1.659 1.35,3.008 3.008,3.008l0.048,0l0,0.812c0,0.395 0.321,0.716 0.716,0.716c0.396,0 0.716,-0.321 0.716,-0.716l0,-0.812l35.236,0l0,0.812c0,0.395 0.32,0.716 0.716,0.716c0.395,0 0.716,-0.321 0.716,-0.716l0,-0.812l0.048,0c1.658,0 3.008,-1.349 3.008,-3.008l0,-16.806c0,-1.658 -1.35,-3.008 -3.008,-3.008Zm-2.856,-13.082c-0.098,0.252 -0.152,0.526 -0.152,0.812l0,9.809c-0.061,-0.033 -0.123,-0.07 -0.19,-0.11c-0.359,-0.216 -0.807,-0.484 -1.642,-0.484c-0.835,0 -1.282,0.268 -1.642,0.484c-0.281,0.168 -0.467,0.28 -0.906,0.28c-0.437,0 -0.622,-0.112 -0.903,-0.28c-0.239,-0.144 -0.518,-0.311 -0.924,-0.406l0,-9.293c0,-0.286 -0.054,-0.56 -0.152,-0.812l6.511,0Zm-6.359,11.63c0.06,0.033 0.121,0.069 0.187,0.109c0.359,0.215 0.806,0.484 1.64,0.484c0.836,0 1.283,-0.268 1.643,-0.484c0.281,-0.169 0.467,-0.28 0.905,-0.28c0.439,0 0.625,0.111 0.906,0.28c0.24,0.144 0.519,0.311 0.926,0.406l0,0.937l-6.207,0l0,-1.452Zm0,2.885l6.207,0l0,13.034c0,1.711 -1.392,3.103 -3.104,3.103c-1.711,0 -3.103,-1.392 -3.103,-3.103l0,-13.034Zm-13.139,-14.515l6.512,0c-0.098,0.252 -0.153,0.526 -0.153,0.812l0,12.27l-6.206,0l0,-12.27c0,-0.286 -0.055,-0.56 -0.153,-0.812Zm0.153,18.505c0.06,0.033 0.12,0.069 0.186,0.109c0.36,0.216 0.807,0.484 1.641,0.484c0.835,0 1.283,-0.268 1.642,-0.484c0.281,-0.168 0.467,-0.28 0.906,-0.28c0.438,0 0.624,0.112 0.905,0.28c0.24,0.144 0.52,0.311 0.926,0.406l0,8.529c0,1.711 -1.392,3.103 -3.103,3.103c-1.711,0 -3.103,-1.392 -3.103,-3.103l0,-9.044Zm6.206,-1.009c-0.061,-0.033 -0.122,-0.07 -0.189,-0.11c-0.36,-0.216 -0.807,-0.484 -1.642,-0.484c-0.835,0 -1.283,0.268 -1.642,0.484c-0.282,0.168 -0.467,0.28 -0.906,0.28c-0.437,0 -0.622,-0.112 -0.903,-0.28c-0.239,-0.144 -0.518,-0.31 -0.924,-0.406l0,-2.465l6.206,0l0,2.981Zm-19.345,-17.496l6.512,0c-0.099,0.252 -0.153,0.526 -0.153,0.812l0,12.27l-6.207,0l0,-12.27c0,-0.286 -0.054,-0.56 -0.152,-0.812Zm0.152,16.977c0.06,0.033 0.121,0.069 0.187,0.109c0.359,0.216 0.806,0.484 1.641,0.484c0.835,0 1.282,-0.268 1.642,-0.484c0.281,-0.168 0.467,-0.28 0.905,-0.28c0.439,0 0.625,0.112 0.906,0.28c0.24,0.144 0.519,0.311 0.926,0.406l0,10.057c0,1.711 -1.392,3.103 -3.103,3.103c-1.712,0 -3.104,-1.392 -3.104,-3.103l0,-10.572Zm6.207,-1.009c-0.061,-0.033 -0.122,-0.07 -0.189,-0.11c-0.36,-0.216 -0.807,-0.484 -1.643,-0.484c-0.835,0 -1.282,0.268 -1.642,0.484c-0.281,0.169 -0.467,0.28 -0.905,0.28c-0.438,0 -0.623,-0.111 -0.903,-0.28c-0.24,-0.144 -0.519,-0.31 -0.925,-0.406l0,-0.937l6.207,0l0,1.453Zm30.556,16.928c0,0.869 -0.707,1.576 -1.575,1.576l-38.196,0c-0.868,0 -1.575,-0.707 -1.575,-1.576l0,-16.806c0,-0.869 0.707,-1.575 1.575,-1.575l1.576,0l0,13.034c0,2.501 2.035,4.536 4.536,4.536c2.501,0 4.535,-2.035 4.535,-4.536l0,-13.034l3.915,0l0,13.034c0,2.501 2.035,4.536 4.536,4.536c2.501,0 4.536,-2.035 4.536,-4.536l0,-13.034l3.915,0l0,13.034c0,2.501 2.034,4.536 4.535,4.536c2.501,0 4.536,-2.035 4.536,-4.536l0,-13.034l1.576,0c0.868,0 1.575,0.706 1.575,1.575l0,16.806Z" style="fill:#fff;fill-rule:nonzero;"/></g></svg>