<?xml version="1.0" encoding="UTF-8" standalone="no"?>
<!DOCTYPE svg PUBLIC "-//W3C//DTD SVG 1.1//EN" "http://www.w3.org/Graphics/SVG/1.1/DTD/svg11.dtd">
<svg width="100%" height="100%" viewBox="0 0 53 45" version="1.1" xmlns="http://www.w3.org/2000/svg" xmlns:xlink="http://www.w3.org/1999/xlink" xml:space="preserve" xmlns:serif="http://www.serif.com/" style="fill-rule:evenodd;clip-rule:evenodd;stroke-linejoin:round;stroke-miterlimit:1.41421;"><rect id="Artboard1" x="0" y="0" width="52.5" height="45" style="fill:none;"/><g><path d="M41.275,16.163c-0.813,-0.312 -1.681,-0.596 -2.593,-0.851c0.236,-0.917 0.424,-1.81 0.56,-2.67c0.706,-4.479 -0.075,-7.621 -2.198,-8.847c-0.617,-0.357 -1.327,-0.537 -2.109,-0.537c-2.469,0 -5.59,1.834 -8.737,4.931c-0.688,-0.676 -1.379,-1.296 -2.068,-1.853c-3.525,-2.851 -6.637,-3.746 -8.76,-2.52c-1.365,0.788 -2.195,2.397 -2.4,4.653c-0.034,0.379 0.245,0.714 0.624,0.749c0.38,0.035 0.714,-0.245 0.748,-0.624c0.114,-1.249 0.504,-2.884 1.717,-3.585c1.572,-0.907 4.198,-0.033 7.205,2.398c0.656,0.531 1.315,1.123 1.971,1.767c-1.32,1.405 -2.634,3.022 -3.895,4.809c-2.22,0.202 -4.334,0.541 -6.274,1.006c-0.339,-1.321 -0.573,-2.581 -0.688,-3.751c-0.037,-0.378 -0.373,-0.655 -0.753,-0.618c-0.379,0.037 -0.655,0.375 -0.618,0.753c0.122,1.238 0.368,2.569 0.727,3.962c-0.881,0.249 -1.72,0.525 -2.509,0.828c-4.232,1.628 -6.563,3.875 -6.563,6.327c0,2.452 2.331,4.699 6.563,6.327c0.813,0.312 1.681,0.596 2.593,0.851c-0.236,0.917 -0.424,1.81 -0.56,2.671c-0.706,4.478 0.075,7.62 2.198,8.846c0.617,0.357 1.327,0.538 2.109,0.538c2.441,0 5.518,-1.793 8.629,-4.826c0.667,0.651 1.336,1.25 2.003,1.79c2.495,2.018 4.782,3.056 6.659,3.055c0.775,0 1.481,-0.177 2.101,-0.535c2.124,-1.226 2.904,-4.368 2.198,-8.847c-0.136,-0.86 -0.324,-1.753 -0.559,-2.67c1.418,-0.391 2.723,-0.851 3.878,-1.375c0.347,-0.157 0.5,-0.565 0.343,-0.912c-0.157,-0.346 -0.565,-0.5 -0.912,-0.343c-1.094,0.496 -2.331,0.933 -3.678,1.304c-0.557,-1.861 -1.299,-3.804 -2.202,-5.77c0.944,-2.032 1.716,-4.042 2.291,-5.965c5.113,1.432 8.144,3.693 8.144,5.861c0,1.401 -1.222,2.556 -2.246,3.279c-0.311,0.219 -0.386,0.649 -0.166,0.96c0.219,0.311 0.649,0.385 0.96,0.166c1.851,-1.306 2.83,-2.829 2.83,-4.405c0,-2.452 -2.331,-4.699 -6.563,-6.327Zm-6.34,-11.527c0.537,0 1.015,0.118 1.42,0.352c1.572,0.908 2.128,3.619 1.525,7.439c-0.129,0.818 -0.307,1.668 -0.531,2.542c-1.949,-0.462 -4.07,-0.798 -6.296,-0.996c-1.249,-1.767 -2.56,-3.384 -3.893,-4.8c0.244,-0.24 0.488,-0.473 0.732,-0.698c2.687,-2.476 5.188,-3.839 7.043,-3.839Zm-8.736,5.525c1.04,1.108 2.067,2.344 3.062,3.684c-0.99,-0.054 -1.995,-0.082 -3.011,-0.082c-1.05,0 -2.089,0.03 -3.11,0.087c0.993,-1.337 2.022,-2.578 3.059,-3.689Zm-0.004,24.771c-1.077,-1.141 -2.14,-2.419 -3.168,-3.809c1.057,0.062 2.134,0.094 3.223,0.094c1.049,0 2.088,-0.031 3.111,-0.089c-1.027,1.384 -2.092,2.665 -3.166,3.804Zm0.055,-5.093c-1.48,0 -2.901,-0.057 -4.254,-0.164c-0.761,-1.109 -1.496,-2.276 -2.197,-3.489c-0.689,-1.194 -1.323,-2.398 -1.897,-3.597c0.596,-1.255 1.259,-2.518 1.984,-3.773c0.701,-1.216 1.446,-2.395 2.221,-3.519c1.32,-0.101 2.703,-0.156 4.143,-0.156c1.403,0 2.752,0.052 4.041,0.148c0.775,1.127 1.524,2.313 2.237,3.548c0.721,1.249 1.381,2.506 1.975,3.755c-0.571,1.188 -1.202,2.384 -1.889,3.572c-0.7,1.214 -1.444,2.39 -2.216,3.513c-1.352,0.107 -2.74,0.162 -4.148,0.162Zm-6.028,-0.336c-1.695,-0.196 -3.268,-0.471 -4.703,-0.809c0.436,-1.45 0.988,-2.954 1.647,-4.482c0.45,0.89 0.93,1.78 1.44,2.663c0.521,0.902 1.061,1.779 1.616,2.628Zm0.11,-14.039c-0.562,0.856 -1.11,1.745 -1.64,2.663c-0.545,0.944 -1.056,1.893 -1.532,2.841c-0.693,-1.591 -1.273,-3.158 -1.726,-4.662c1.489,-0.355 3.128,-0.642 4.898,-0.842Zm-14.292,7.026c0,-2.156 2.998,-4.405 8.062,-5.838c0.573,1.911 1.341,3.915 2.279,5.939c-0.902,1.962 -1.642,3.902 -2.197,5.76c-5.113,-1.432 -8.144,-3.693 -8.144,-5.861Zm11.525,17.855c-0.537,0 -1.015,-0.119 -1.42,-0.353c-1.572,-0.908 -2.128,-3.619 -1.525,-7.439c0.129,-0.818 0.307,-1.668 0.531,-2.542c1.885,0.447 3.932,0.776 6.079,0.976c1.282,1.819 2.629,3.48 3.999,4.928c-0.207,0.202 -0.414,0.4 -0.621,0.59c-2.687,2.476 -5.188,3.84 -7.043,3.84Zm20.229,-7.77c0.603,3.819 0.046,6.531 -1.525,7.438c-1.572,0.908 -4.198,0.034 -7.206,-2.398c-0.633,-0.512 -1.269,-1.081 -1.902,-1.699c1.356,-1.431 2.706,-3.087 4.002,-4.922c2.152,-0.198 4.209,-0.523 6.098,-0.965c0.225,0.875 0.404,1.726 0.533,2.546Zm-0.903,-3.873c-1.476,0.343 -3.06,0.613 -4.716,0.804c0.559,-0.853 1.105,-1.738 1.633,-2.652c0.506,-0.878 0.984,-1.761 1.431,-2.642c0.661,1.53 1.215,3.037 1.652,4.49Zm-1.646,-7.729c-0.473,-0.943 -0.982,-1.886 -1.524,-2.825c-0.534,-0.926 -1.089,-1.826 -1.66,-2.696c1.778,0.197 3.424,0.482 4.92,0.834c-0.455,1.515 -1.038,3.089 -1.736,4.687Z" style="fill:#fff;fill-rule:nonzero;"/><path d="M26.25,19.045c-1.9,0 -3.445,1.546 -3.445,3.445c0,1.9 1.545,3.445 3.445,3.445c1.9,0 3.445,-1.545 3.445,-3.445c0,-1.899 -1.545,-3.445 -3.445,-3.445Zm0,5.512c-1.14,0 -2.067,-0.927 -2.067,-2.067c0,-1.14 0.927,-2.067 2.067,-2.067c1.14,0 2.067,0.927 2.067,2.067c0,1.14 -0.927,2.067 -2.067,2.067Z" style="fill:#fff;fill-rule:nonzero;"/></g></svg>