<?xml version="1.0" encoding="UTF-8" standalone="no"?>
<!DOCTYPE svg PUBLIC "-//W3C//DTD SVG 1.1//EN" "http://www.w3.org/Graphics/SVG/1.1/DTD/svg11.dtd">
<svg width="100%" height="100%" viewBox="0 0 53 45" version="1.1" xmlns="http://www.w3.org/2000/svg" xmlns:xlink="http://www.w3.org/1999/xlink" xml:space="preserve" xmlns:serif="http://www.serif.com/" style="fill-rule:evenodd;clip-rule:evenodd;stroke-linejoin:round;stroke-miterlimit:1.41421;"><rect id="Artboard1" x="0" y="0" width="52.5" height="45" style="fill:none;"/><g><path d="M16.282,41.754c3.147,0 4.817,-2.81 5.308,-4.47c0.008,-0.026 0.015,-0.053 0.022,-0.081c1.145,-4.74 2.968,-12.254 4.319,-17.72l4.833,0c0.908,0 1.645,-0.736 1.645,-1.645c0,-0.909 -0.737,-1.646 -1.645,-1.646l-4.015,0c0.432,-1.722 0.749,-2.948 0.873,-3.367l0.138,-0.468c0.511,-1.741 1.705,-5.819 3.553,-5.819c1.713,0 1.968,2.638 1.98,2.766c0.073,0.903 0.861,1.585 1.766,1.507c0.906,-0.069 1.584,-0.861 1.514,-1.767c-0.153,-2.005 -1.452,-5.798 -5.261,-5.798c-4.313,0 -5.932,5.528 -6.71,8.185l-0.132,0.448c-0.158,0.526 -0.573,2.146 -1.114,4.313l-5.757,0c-0.909,0 -1.646,0.737 -1.646,1.646c0,0.909 0.737,1.645 1.646,1.645l4.942,0c-1.69,6.853 -3.873,15.893 -4.113,16.888c-0.09,0.26 -0.765,2.092 -2.145,2.092c-2.108,0 -3.02,-2.959 -3.027,-2.981c-0.253,-0.872 -1.164,-1.377 -2.039,-1.123c-0.873,0.253 -1.376,1.166 -1.123,2.039c0.576,1.989 2.527,5.356 6.188,5.356Z" style="fill:#fff;fill-rule:nonzero;"/><path d="M40.687,37.51c0.969,0 1.784,-0.688 1.784,-1.785c0,-0.509 -0.204,-0.969 -0.637,-1.479l-3.417,-3.927l3.315,-3.876c0.306,-0.383 0.535,-0.791 0.535,-1.327c0,-0.97 -0.79,-1.683 -1.811,-1.683c-0.688,0 -1.223,0.433 -1.683,0.995l-2.575,3.365l-2.525,-3.365c-0.51,-0.637 -1.045,-0.995 -1.81,-0.995c-0.97,0 -1.785,0.689 -1.785,1.786c0,0.509 0.204,0.968 0.637,1.478l3.188,3.672l-3.495,4.132c-0.331,0.382 -0.535,0.79 -0.535,1.326c0,0.97 0.791,1.683 1.811,1.683c0.688,0 1.224,-0.434 1.683,-0.995l2.753,-3.621l2.754,3.621c0.512,0.639 1.048,0.995 1.813,0.995Z" style="fill:#fff;fill-rule:nonzero;"/></g></svg>