<?xml version="1.0" encoding="UTF-8" standalone="no"?>
<!DOCTYPE svg PUBLIC "-//W3C//DTD SVG 1.1//EN" "http://www.w3.org/Graphics/SVG/1.1/DTD/svg11.dtd">
<svg width="100%" height="100%" viewBox="0 0 53 45" version="1.1" xmlns="http://www.w3.org/2000/svg" xmlns:xlink="http://www.w3.org/1999/xlink" xml:space="preserve" xmlns:serif="http://www.serif.com/" style="fill-rule:evenodd;clip-rule:evenodd;stroke-linejoin:round;stroke-miterlimit:1.41421;"><rect id="Artboard1" x="0" y="0" width="52.5" height="45" style="fill:none;"/><g><path d="M47.045,2.076l-34.163,0c-0.41,0 -0.743,0.333 -0.743,0.743l0,5.199c0,0.409 0.333,0.742 0.743,0.742l34.163,0c0.41,0 0.743,-0.333 0.743,-0.742l0,-5.199c0,-0.41 -0.333,-0.743 -0.743,-0.743Zm-0.742,5.199l-32.679,0l0,-3.714l32.679,0l0,3.714Z" style="fill:#fff;fill-rule:nonzero;"/><path d="M29.964,8.018c-0.41,0 -0.743,0.332 -0.743,0.742l0,24.509c0,0.41 0.333,0.743 0.743,0.743c0.409,0 0.742,-0.333 0.742,-0.743l0,-24.509c0,-0.41 -0.333,-0.742 -0.742,-0.742Z" style="fill:#fff;fill-rule:nonzero;"/><path d="M29.964,32.526c-2.867,0 -5.199,2.332 -5.199,5.199c0,2.867 2.332,5.199 5.199,5.199c2.866,0 5.198,-2.332 5.198,-5.199c0,-2.867 -2.332,-5.199 -5.198,-5.199Zm0,8.913c-2.048,0 -3.714,-1.666 -3.714,-3.714c0,-2.048 1.666,-3.713 3.714,-3.713c2.047,0 3.713,1.665 3.713,3.713c0,2.048 -1.666,3.714 -3.713,3.714Z" style="fill:#fff;fill-rule:nonzero;"/><path d="M40.361,8.018c-0.41,0 -0.743,0.332 -0.743,0.742l0,24.509c0,0.41 0.333,0.743 0.743,0.743c0.41,0 0.743,-0.333 0.743,-0.743l0,-24.509c0,-0.41 -0.333,-0.742 -0.743,-0.742Z" style="fill:#fff;fill-rule:nonzero;"/><path d="M40.361,32.526c-2.867,0 -5.199,2.332 -5.199,5.199c0,2.867 2.332,5.199 5.199,5.199c2.867,0 5.199,-2.332 5.199,-5.199c0,-2.867 -2.332,-5.199 -5.199,-5.199Zm0,8.913c-2.048,0 -3.713,-1.666 -3.713,-3.714c0,-2.048 1.665,-3.713 3.713,-3.713c2.048,0 3.714,1.665 3.714,3.713c0,2.048 -1.666,3.714 -3.714,3.714Z" style="fill:#fff;fill-rule:nonzero;"/><path d="M22.176,7.449c-0.389,-0.132 -0.81,0.077 -0.941,0.466l-7.837,23.222c-0.131,0.389 0.077,0.81 0.466,0.941c0.079,0.026 0.159,0.039 0.238,0.039c0.31,0 0.599,-0.195 0.703,-0.505l7.837,-23.222c0.131,-0.389 -0.078,-0.81 -0.466,-0.941Z" style="fill:#fff;fill-rule:nonzero;"/><path d="M17.336,33.289c-0.617,-1.244 -1.681,-2.174 -2.996,-2.618c-2.716,-0.916 -5.672,0.547 -6.588,3.264c-0.444,1.315 -0.349,2.725 0.267,3.97c0.616,1.244 1.68,2.174 2.996,2.618c0.545,0.184 1.107,0.275 1.667,0.275c0.79,0 1.574,-0.182 2.303,-0.542c1.244,-0.617 2.174,-1.681 2.618,-2.997c0.444,-1.316 0.349,-2.725 -0.267,-3.97Zm-1.14,3.495c-0.317,0.94 -0.981,1.7 -1.87,2.14c-0.888,0.44 -1.896,0.508 -2.836,0.191c-0.94,-0.317 -1.7,-0.982 -2.14,-1.87c-0.44,-0.889 -0.508,-1.896 -0.191,-2.836c0.522,-1.548 1.971,-2.526 3.522,-2.526c0.393,0 0.792,0.062 1.184,0.195c0.94,0.317 1.7,0.982 2.14,1.87c0.44,0.889 0.508,1.896 0.191,2.836Z" style="fill:#fff;fill-rule:nonzero;"/><path d="M9.043,29.144l-2.97,-4.456c-0.228,-0.342 -0.689,-0.435 -1.03,-0.206c-0.341,0.227 -0.434,0.688 -0.206,1.029l2.971,4.457c0.143,0.214 0.378,0.33 0.618,0.33c0.142,0 0.285,-0.04 0.411,-0.124c0.342,-0.228 0.434,-0.689 0.206,-1.03Z" style="fill:#fff;fill-rule:nonzero;"/><path d="M11.368,28.609l-2.971,-10.398c-0.113,-0.394 -0.523,-0.623 -0.918,-0.51c-0.394,0.113 -0.623,0.524 -0.51,0.918l2.97,10.398c0.094,0.326 0.391,0.539 0.714,0.539c0.068,0 0.136,-0.009 0.205,-0.029c0.394,-0.112 0.623,-0.524 0.51,-0.918Z" style="fill:#fff;fill-rule:nonzero;"/><path d="M44.446,4.304c-0.614,0 -1.114,0.5 -1.114,1.114c0,0.615 0.5,1.114 1.114,1.114c0.614,0 1.114,-0.499 1.114,-1.114c0,-0.614 -0.5,-1.114 -1.114,-1.114Zm0,1.485c-0.205,0 -0.371,-0.166 -0.371,-0.371c0,-0.205 0.166,-0.371 0.371,-0.371c0.205,0 0.371,0.166 0.371,0.371c0,0.205 -0.166,0.371 -0.371,0.371Z" style="fill:#fff;fill-rule:nonzero;"/><path d="M15.481,4.304c-0.614,0 -1.114,0.5 -1.114,1.114c0,0.615 0.5,1.114 1.114,1.114c0.614,0 1.114,-0.499 1.114,-1.114c0,-0.614 -0.5,-1.114 -1.114,-1.114Zm0,1.485c-0.205,0 -0.371,-0.166 -0.371,-0.371c0,-0.205 0.166,-0.371 0.371,-0.371c0.205,0 0.372,0.166 0.372,0.371c0,0.205 -0.167,0.371 -0.372,0.371Z" style="fill:#fff;fill-rule:nonzero;"/></g></svg>