<?xml version="1.0" encoding="UTF-8" standalone="no"?>
<!DOCTYPE svg PUBLIC "-//W3C//DTD SVG 1.1//EN" "http://www.w3.org/Graphics/SVG/1.1/DTD/svg11.dtd">
<svg width="100%" height="100%" viewBox="0 0 53 45" version="1.1" xmlns="http://www.w3.org/2000/svg" xmlns:xlink="http://www.w3.org/1999/xlink" xml:space="preserve" xmlns:serif="http://www.serif.com/" style="fill-rule:evenodd;clip-rule:evenodd;stroke-linejoin:round;stroke-miterlimit:1.41421;"><rect id="Artboard1" x="0" y="0" width="52.5" height="45" style="fill:none;"/><g><g><path d="M14.448,19.549c2.441,0 4.426,-1.985 4.426,-4.425c0,-2.441 -1.985,-4.426 -4.426,-4.426c-2.441,0 -4.426,1.985 -4.426,4.426c0,2.44 1.985,4.425 4.426,4.425Zm0,-7.376c1.627,0 2.95,1.323 2.95,2.951c0,1.627 -1.323,2.95 -2.95,2.95c-1.628,0 -2.951,-1.323 -2.951,-2.95c0,-1.628 1.323,-2.951 2.951,-2.951Z" style="fill:#fff;fill-rule:nonzero;"/><path d="M38.052,19.549c2.441,0 4.426,-1.985 4.426,-4.425c0,-2.441 -1.985,-4.426 -4.426,-4.426c-2.441,0 -4.426,1.985 -4.426,4.426c0,2.44 1.985,4.425 4.426,4.425Zm0,-7.376c1.628,0 2.951,1.323 2.951,2.951c0,1.627 -1.323,2.95 -2.951,2.95c-1.627,0 -2.95,-1.323 -2.95,-2.95c0,-1.628 1.323,-2.951 2.95,-2.951Z" style="fill:#fff;fill-rule:nonzero;"/><path d="M45.429,21.025l0,9.589c0,1.22 -0.993,2.213 -2.213,2.213l0,-8.114c0,-2.034 -1.655,-3.688 -3.688,-3.688l-3.689,0c-0.407,0 -0.737,0.33 -0.737,0.737l0,4.426l-5.901,0c-0.408,0 -0.738,0.331 -0.738,0.738l0,2.213l-4.426,0l0,-2.213c0,-0.407 -0.33,-0.738 -0.738,-0.738l-5.901,0l0,-0.737l0,-0.738l0,-2.951c0,-0.407 -0.33,-0.737 -0.737,-0.737l-3.689,0c-2.033,0 -3.688,1.654 -3.688,3.688l0,8.114c-1.22,0 -2.213,-0.993 -2.213,-2.213l0,-9.589l-1.475,0l0,9.589c0,1.509 0.912,2.805 2.213,3.376l0,9.164l1.475,0l0,-8.852l7.377,0l0,8.114c0,0.408 0.33,0.738 0.737,0.738l3.688,0l0,-0.738l0,-11.064l0,-0.738l10.328,0l0,12.54l3.688,0c0.407,0 0.737,-0.33 0.737,-0.738l0,-8.114l7.377,0l0,8.852l1.475,0l0,-9.164c1.301,-0.571 2.213,-1.867 2.213,-3.376l0,-9.589l-1.475,0Zm-25.08,8.114l-1.475,0l-4.426,0l0,-4.426l-1.476,0l0,5.163c0,0.408 0.331,0.738 0.738,0.738l5.164,0c0.406,0 0.737,0.331 0.737,0.738l0,10.327l-1.475,0l0,-8.114c0,-0.408 -0.331,-0.738 -0.738,-0.738l-6.639,0l0,-8.114c0,-1.22 0.993,-2.213 2.213,-2.213l2.951,0l0,4.426c0,0.407 0.33,0.738 0.738,0.738l5.901,0l0,1.475l-2.213,0Zm14.753,3.688c-0.407,0 -0.738,0.33 -0.738,0.738l0,8.114l-1.475,0l0,-10.327c0,-0.407 0.331,-0.738 0.737,-0.738l5.164,0c0.407,0 0.738,-0.33 0.738,-0.738l0,-5.163l-1.476,0l0,4.426l-4.426,0l-1.475,0l-2.213,0l0,-1.475l5.901,0c0.408,0 0.738,-0.331 0.738,-0.738l0,-1.475l0,-0.738l0,-2.213l2.951,0c1.22,0 2.213,0.993 2.213,2.213l0,8.114l-6.639,0Z" style="fill:#fff;fill-rule:nonzero;"/><path d="M19.611,9.222l0,2.213c0,0.318 0.203,0.599 0.505,0.7c0.076,0.025 0.155,0.038 0.233,0.038c0.228,0 0.448,-0.106 0.59,-0.295l1.992,-2.656l5.532,0c1.22,0 2.213,-0.992 2.213,-2.213l0,-2.95c0,-1.22 -0.993,-2.213 -2.213,-2.213l-8.852,0c-1.22,0 -2.213,0.993 -2.213,2.213l0,2.95c0,1.221 0.993,2.213 2.213,2.213Zm-0.737,-5.163c0,-0.407 0.331,-0.738 0.737,-0.738l8.852,0c0.406,0 0.738,0.331 0.738,0.738l0,2.95c0,0.407 -0.332,0.738 -0.738,0.738l-5.901,0c-0.233,0 -0.451,0.109 -0.59,0.295l-0.886,1.18l0,-0.737c0,-0.407 -0.33,-0.738 -0.737,-0.738l-0.738,0c-0.406,0 -0.737,-0.331 -0.737,-0.738l0,-2.95Z" style="fill:#fff;fill-rule:nonzero;"/><rect x="20.349" y="4.797" width="7.376" height="1.475" style="fill:#fff;"/><rect x="25.512" y="20.287" width="4.426" height="1.475" style="fill:#fff;"/><path d="M24.775,17.336c-1.22,0 -2.213,0.993 -2.213,2.213l0,2.951c0,1.22 0.993,2.213 2.213,2.213l5.901,0c1.22,0 2.213,-0.993 2.213,-2.213l0,-0.514l1.351,-2.027c0.151,-0.227 0.165,-0.517 0.037,-0.757c-0.128,-0.24 -0.378,-0.39 -0.651,-0.39l-0.863,0c-0.305,-0.859 -1.125,-1.476 -2.087,-1.476l-5.901,0Zm6.639,2.213c0,0.408 0.33,0.738 0.737,0.738l0.097,0l-0.711,1.066c-0.08,0.121 -0.123,0.264 -0.123,0.409l0,0.738c0,0.406 -0.332,0.738 -0.738,0.738l-5.901,0c-0.407,0 -0.738,-0.332 -0.738,-0.738l0,-2.951c0,-0.406 0.331,-0.737 0.738,-0.737l5.901,0c0.406,0 0.738,0.331 0.738,0.737Z" style="fill:#fff;fill-rule:nonzero;"/><rect x="22.562" y="13.648" width="1.475" height="1.475" style="fill:#fff;"/><rect x="25.512" y="13.648" width="1.475" height="1.475" style="fill:#fff;"/><rect x="28.463" y="13.648" width="1.475" height="1.475" style="fill:#fff;"/></g></g></svg>