<?xml version="1.0" encoding="UTF-8" standalone="no"?>
<!DOCTYPE svg PUBLIC "-//W3C//DTD SVG 1.1//EN" "http://www.w3.org/Graphics/SVG/1.1/DTD/svg11.dtd">
<svg width="100%" height="100%" viewBox="0 0 53 45" version="1.1" xmlns="http://www.w3.org/2000/svg" xmlns:xlink="http://www.w3.org/1999/xlink" xml:space="preserve" xmlns:serif="http://www.serif.com/" style="fill-rule:evenodd;clip-rule:evenodd;stroke-linejoin:round;stroke-miterlimit:1.41421;"><rect id="Artboard1" x="0" y="0" width="52.5" height="45" style="fill:none;"/><g><path d="M44.36,28.717l0,-13.895l1.736,-0.861c0.408,-0.202 0.667,-0.618 0.668,-1.074c0.001,-0.455 -0.256,-0.873 -0.663,-1.077l-19.312,-9.696c-0.339,-0.17 -0.739,-0.17 -1.078,0l-19.312,9.696c-0.407,0.204 -0.664,0.622 -0.663,1.077c0.001,0.456 0.26,0.872 0.668,1.074l9.028,4.477l0,6.466c0,3.17 7.669,3.606 10.818,3.606c3.149,0 10.818,-0.435 10.818,-3.606l0,-6.466l4.888,-2.424l0,12.703c-1.399,0.496 -2.404,1.832 -2.404,3.399c0,0.923 0.349,1.765 0.921,2.404c-0.572,0.638 -0.921,1.481 -0.921,2.404l0,4.888c0,0.664 0.538,1.202 1.202,1.202l4.808,0c0.664,0 1.202,-0.538 1.202,-1.202l0,-4.888c0,-0.923 -0.349,-1.766 -0.921,-2.404c0.572,-0.639 0.921,-1.481 0.921,-2.404c0,-1.567 -1.005,-2.903 -2.404,-3.399Zm-18.11,-2.611c-2.201,0 -6.146,-0.252 -8.066,-1.202c1.909,-0.944 5.82,-1.202 8.066,-1.202c2.201,0 6.146,0.252 8.066,1.202c-1.909,0.944 -5.82,1.202 -8.066,1.202Zm8.414,-3.672c-2.33,-0.867 -5.871,-1.136 -8.414,-1.136c-2.542,0 -6.087,0.27 -8.414,1.136l0,-9.343c0.238,-0.184 0.964,-0.559 2.535,-0.884c1.639,-0.338 3.727,-0.525 5.879,-0.525c3.121,0 7.216,0.484 8.414,1.409l0,9.343Zm2.404,-6.68l0,-2.87c0,-3.17 -7.669,-3.606 -10.818,-3.606c-3.149,0 -10.818,0.435 -10.818,3.606l0,2.87l-5.802,-2.877l16.62,-8.344l16.62,8.344l-5.802,2.877Zm7.292,24.856l-2.404,0l0,-3.686c0,-0.663 0.539,-1.202 1.202,-1.202c0.663,0 1.202,0.539 1.202,1.202l0,3.686Zm-1.202,-7.292c-0.663,0 -1.202,-0.539 -1.202,-1.202c0,-0.663 0.539,-1.202 1.202,-1.202c0.663,0 1.202,0.539 1.202,1.202c0,0.663 -0.539,1.202 -1.202,1.202Z" style="fill:#fff;fill-rule:nonzero;"/></g></svg>