<?xml version="1.0" encoding="UTF-8" standalone="no"?>
<!DOCTYPE svg PUBLIC "-//W3C//DTD SVG 1.1//EN" "http://www.w3.org/Graphics/SVG/1.1/DTD/svg11.dtd">
<svg width="100%" height="100%" viewBox="0 0 53 45" version="1.1" xmlns="http://www.w3.org/2000/svg" xmlns:xlink="http://www.w3.org/1999/xlink" xml:space="preserve" xmlns:serif="http://www.serif.com/" style="fill-rule:evenodd;clip-rule:evenodd;stroke-linejoin:round;stroke-miterlimit:1.41421;"><rect id="Artboard1" x="0" y="0" width="52.5" height="45" style="fill:none;"/><g><path d="M26.25,12.482l-13.05,0c-0.728,0 -1.318,0.59 -1.318,1.318c0,0.728 0.59,1.318 1.318,1.318l13.05,0c0.728,0 1.318,-0.59 1.318,-1.318c0,-0.728 -0.59,-1.318 -1.318,-1.318Z" style="fill:#fff;fill-rule:nonzero;"/><path d="M26.25,16.832l-13.05,0c-0.728,0 -1.318,0.59 -1.318,1.318c0,0.728 0.59,1.318 1.318,1.318l13.05,0c0.728,0 1.318,-0.59 1.318,-1.318c0,-0.728 -0.59,-1.318 -1.318,-1.318Z" style="fill:#fff;fill-rule:nonzero;"/><path d="M26.25,21.182l-13.05,0c-0.728,0 -1.318,0.59 -1.318,1.318c0,0.728 0.59,1.318 1.318,1.318l13.05,0c0.728,0 1.318,-0.59 1.318,-1.318c0,-0.728 -0.59,-1.318 -1.318,-1.318Z" style="fill:#fff;fill-rule:nonzero;"/><path d="M41.673,5.956l-30.846,0c-1.817,0 -3.295,1.479 -3.295,3.296l0,22.146c0,1.817 1.478,3.295 3.295,3.295l19.542,0l0,3.032c0,0.486 0.268,0.933 0.696,1.162c0.429,0.23 0.949,0.205 1.354,-0.065l2.531,-1.687l2.531,1.687c0.221,0.147 0.476,0.222 0.732,0.222c0.213,0 0.427,-0.052 0.622,-0.156c0.428,-0.23 0.696,-0.676 0.696,-1.163l0,-3.032l2.142,0c1.817,0 3.295,-1.478 3.295,-3.295l0,-22.146c0.001,-1.817 -1.478,-3.296 -3.295,-3.296Zm-6.723,22.227c-1.926,0 -3.493,-1.573 -3.493,-3.508c0,-1.935 1.567,-3.509 3.493,-3.509c1.926,0 3.493,1.574 3.493,3.509c0,1.935 -1.566,3.508 -3.493,3.508Zm0.731,6.27c-0.221,-0.147 -0.476,-0.221 -0.731,-0.221c-0.255,0 -0.51,0.074 -0.731,0.221l-1.213,0.809l0,-4.761c0.611,0.206 1.265,0.319 1.944,0.319c0.68,0 1.333,-0.113 1.945,-0.319l0,4.761l-1.214,-0.809Zm6.651,-3.055c0,0.357 -0.302,0.659 -0.659,0.659l-2.142,0l0,-3.305c0.963,-1.086 1.549,-2.513 1.549,-4.077c0,-3.388 -2.75,-6.145 -6.13,-6.145c-3.38,0 -6.13,2.757 -6.13,6.145c0,1.563 0.587,2.991 1.549,4.077l0,3.305l-19.542,0c-0.357,0 -0.659,-0.302 -0.659,-0.659l0,-22.146c0,-0.357 0.302,-0.659 0.659,-0.659l30.846,0c0.357,0 0.659,0.302 0.659,0.659l0,22.146Z" style="fill:#fff;fill-rule:nonzero;"/></g></svg>