<?xml version="1.0" encoding="UTF-8" standalone="no"?><!DOCTYPE svg PUBLIC "-//W3C//DTD SVG 1.1//EN" "http://www.w3.org/Graphics/SVG/1.1/DTD/svg11.dtd"><svg width="100%" height="100%" viewBox="0 0 39 39" version="1.1" xmlns="http://www.w3.org/2000/svg" xmlns:xlink="http://www.w3.org/1999/xlink" xml:space="preserve" xmlns:serif="http://www.serif.com/" style="fill-rule:evenodd;clip-rule:evenodd;stroke-linejoin:round;stroke-miterlimit:1.41421;"><rect id="Artboard1" x="0" y="0" width="39" height="39" style="fill:none;"/><g><path d="M3.297,5.816l5.823,0l0,2.912l-5.823,0l0,-2.912Zm0,4.077l5.823,0l0,19.799l-5.823,0l0,-19.799Zm1.067,16.134c0,1.006 0.814,1.821 1.82,1.821c1.005,0 1.82,-0.815 1.82,-1.821c0,-1.006 -0.815,-1.82 -1.82,-1.82c-1.006,0.001 -1.82,0.816 -1.82,1.82Zm-1.067,7.159l5.823,0l0,-2.33l-5.823,0l0,2.33Zm6.987,-2.737l0,2.737l7.571,0l0,-2.751c-0.31,-0.221 -1.27,-0.743 -3.494,-0.743c-2.109,0 -3.456,0.472 -4.077,0.757Zm0,-16.752c0.621,0.285 1.968,0.758 4.077,0.758c2.21,-0.001 3.173,-0.516 3.494,-0.747l0,-2.068l-7.571,0l0,2.057Zm0,1.261l0,14.23c0.844,-0.316 2.194,-0.661 4.077,-0.661c1.698,0 2.8,0.285 3.494,0.588l0,-14.083c-0.694,0.303 -1.796,0.587 -3.494,0.587c-1.883,0 -3.233,-0.345 -4.077,-0.661Zm19.919,-9.272l-3.993,0.819l0.585,2.852l3.993,-0.819l-0.585,-2.852Zm4.798,23.388l-3.992,0.82l-3.981,-19.396l3.993,-0.819l3.98,19.395Zm-1.385,-3.457c-0.202,-0.983 -0.989,-1.654 -1.756,-1.496c-0.767,0.158 -1.227,1.084 -1.024,2.068c0.202,0.984 0.988,1.655 1.755,1.496c0.768,-0.157 1.227,-1.082 1.025,-2.068Zm1.619,4.597l-3.993,0.82l0.468,2.28l3.993,-0.819l-0.468,-2.281Zm-15.634,-21.486l5.824,0l0,-2.912l-5.824,0l0,2.912Zm0,24.458l5.824,0l0,-2.33l-5.824,0l0,2.33Zm0,-6.406l5.824,0l0,-13.976l-5.824,0l0,13.976Zm0,2.912l5.824,0l0,-1.747l-5.824,0l0,1.747Zm0,-18.052l5.824,0l0,-1.747l-5.824,0l0,1.747Z" style="fill:#fff;fill-rule:nonzero;"/></g></svg>